<svg width="161" height="136" fill="none" xmlns="http://www.w3.org/2000/svg"><path d="M4.21 46.565C11.6 14.745 21.076 6.227 56.73.602c35.656-5.625 36.622 30.053 76.934 28.124 40.312-1.928 27.583 49.558 14.937 77.783-18.363 40.983-73.08 31.016-113.392 18.802C-5.104 113.098-3.178 78.385 4.21 46.565z" fill="#F9F9F9"/><circle cx="45" cy="14" r="2.5" stroke="silver"/><circle cx="39" cy="88" r="2.5" stroke="#7BD77F"/><circle cx="134" cy="106.088" r="2.5" stroke="#EF8686"/><circle cx="119.5" cy="28.5" r="2" stroke="silver"/><path d="M4.367 19.806l2.156 1.773a.5.5 0 01-.136.852l-2.546.992a.5.5 0 01-.676-.536l.389-2.764a.5.5 0 01.813-.317zm52 100l2.156 1.773a.5.5 0 01-.136.852l-2.546.992a.5.5 0 01-.676-.536l.389-2.764a.5.5 0 01.813-.317z" stroke="#ED72E8"/><rect x="91.457" y="121.051" width="4.405" height="4.405" rx=".5" transform="rotate(45 91.457 121.051)" stroke="#FACD76"/><rect x="4.822" y="91.707" width="4.405" height="4.405" rx=".5" transform="rotate(45 4.822 91.707)" stroke="#FACD76"/><path d="M15.13 52.592l.268.14a1.5 1.5 0 001.42-.01l.355-.194a.5.5 0 01.738.49l-.058.553a1.5 1.5 0 00.461 1.246l.357.337a.5.5 0 01-.274.858l-.247.035a1.5 1.5 0 00-1.173.903l-.097.23a.5.5 0 01-.9.044l-.234-.43a1.5 1.5 0 00-1.087-.766l-.548-.085a.5.5 0 01-.285-.839l.278-.293a1.5 1.5 0 00.374-1.37l-.068-.295a.5.5 0 01.72-.554z" stroke="#8598FB"/><path d="M141.781 51.33l.267.14c.446.236.979.232 1.421-.01l.355-.194a.5.5 0 01.737.491l-.058.552c-.049.465.122.925.462 1.246l.356.337a.5.5 0 01-.274.859l-.247.034a1.5 1.5 0 00-1.173.903l-.096.23a.5.5 0 01-.9.044l-.235-.43a1.5 1.5 0 00-1.086-.766l-.548-.085a.5.5 0 01-.286-.838l.279-.294a1.5 1.5 0 00.373-1.37l-.068-.295a.5.5 0 01.721-.554z" stroke="#7BD77F"/></svg>