<svg width="1086" height="768" fill="none" xmlns="http://www.w3.org/2000/svg"><path d="M612.682 112.296c-69.59-.11-136.64-21.73-200.79-45.79s-127.79-50.89-196.12-62.4c-44-7.4-93.9-6.9-128.17 19.38-32.97 25.29-42.41 67.26-46.93 106.08-3.39 29.18-4.91 59.83 8.17 86.57 9.09 18.57 24.59 33.89 35.56 51.6 38.17 61.6 15.52 140-21.24 202.82-17.25 29.41-37.46 57.64-50.47 88.8-13.01 31.16-18.28 66.52-4.84 97.35 13.34 30.57 43.34 52.86 75.43 68.07 65.29 31 141.16 37.82 215 40.59 163.48 6.14 327.21-4.8 490.51-15.8 60.43-4.06 121.13-8.16 180.29-20.29 32.848-6.73 66.658-16.76 89.898-38.92 29.5-28.12 35.42-74.17 13.81-107.34-36.26-55.69-131.418-66.45-157.518-126.63-14.37-33.13-2.17-71 15.86-102.86 38.69-68.29 105.438-129.37 106.348-205.89.62-52.56-34.33-103.93-86.368-126.93-54.56-24.14-128.8-18.2-166.83 26.28-39.16 45.8-110.15 65.41-171.6 65.31z" fill="#FFF8EE"/></svg>