<svg width="80" height="80" xmlns="http://www.w3.org/2000/svg" xmlns:xlink="http://www.w3.org/1999/xlink"><defs><linearGradient x1="100%" y1="100%" x2="23.996%" y2="15.603%" id="b"><stop stop-color="#57FFCD" offset="0%"/><stop stop-color="#BAFFA4" offset="100%"/></linearGradient><path d="M40 .81c22.091 0 40 17.908 40 40v30c0 5.522-4.477 10-10 10H40c-22.091 0-40-17.91-40-40 0-22.092 17.909-40 40-40z" id="a"/></defs><g transform="translate(0 -.81)" fill="none" fill-rule="evenodd"><mask id="c" fill="#fff"><use xlink:href="#a"/></mask><use fill="url(#b)" xlink:href="#a"/><path d="M33.714 2.714h24a8 8 0 018 8v67.81a8 8 0 01-8 8h-24a8 8 0 01-8-8v-67.81a8 8 0 018-8z" fill="#FFF" opacity=".267" mask="url(#c)" transform="rotate(47 45.714 44.619)"/><path d="M31.81-3h24a8 8 0 018 8v76.381a8 8 0 01-8 8h-24a8 8 0 01-8-8V5a8 8 0 018-8z" fill-opacity=".029" fill="#000" mask="url(#c)" transform="rotate(-43 43.81 43.19)"/></g></svg>