<svg xmlns="http://www.w3.org/2000/svg" width="76" height="77"><defs><linearGradient id="a" x1="67.917%" x2="0%" y1="73.398%" y2="0%"><stop offset="0%" stop-color="#54DF5B"/><stop offset="100%" stop-color="#B9F890"/></linearGradient></defs><path fill-rule="evenodd" fill="url(#a)" d="M35.729.999C54.681.999 70 16.318 70 35.27v27.728a7.993 7.993 0 01-8 8.001H29.647C13.252 70.999 0 57.747 0 41.352v-4.624C0 16.97 15.971.999 35.729.999z"/><path fill-rule="evenodd" opacity=".149" fill="#FFF" d="M59.748 6.99l12.958 13.895a7.995 7.995 0 01-.395 11.308L30.623 71.066a7.991 7.991 0 01-11.306-.395L6.359 56.776a7.993 7.993 0 01.395-11.307L48.441 6.595a7.993 7.993 0 0111.307.395z"/><path fill-rule="evenodd" fill-opacity=".039" d="M4.155 15.547L18.051 2.589a7.992 7.992 0 0111.307.395l44.33 47.538a7.992 7.992 0 01-.395 11.306L59.397 74.786a7.992 7.992 0 01-11.307-.395L3.761 26.854a7.993 7.993 0 01.394-11.307z"/></svg>