<svg width="2550" height="2492" xmlns="http://www.w3.org/2000/svg"><defs><linearGradient x1="61.375%" y1="15.741%" x2="71.108%" y2="89.754%" id="a"><stop stop-color="#F9FCFF" offset="0%"/><stop stop-color="#FEF4E1" offset="100%"/></linearGradient></defs><path d="M685 435c160.002 112.217 555.315 211 988 8 432.685-203 857 240 857 612 0 319-72.5 423-111.5 464-228.08 239.777-430.5 69-715.5 186-193.039 79.248-227 197-224 331s141.541 348.43 445 283.43S2270 2456 2454.5 2486s265.223-56.225 406.5-242c94.185-123.85 6.185-871.85-264-2244C1070.973 9.679 220.973 15.345 47 17c-36.539.347-84 349 0 345s378.5-109 638 73z" transform="translate(-47)" fill="url(#a)" fill-rule="evenodd"/></svg>