<svg xmlns="http://www.w3.org/2000/svg" xmlns:xlink="http://www.w3.org/1999/xlink" width="148" height="46"><defs><linearGradient id="linear-gradient" x1="70.5" y1="40" x2="70.5" gradientUnits="userSpaceOnUse"><stop offset="NaN" stop-color="gray"/><stop offset="NaN" stop-color="gray" stop-opacity=".251"/><stop offset="Infinity" stop-color="#NaNNaNNaN" stop-opacity=".102"/></linearGradient><linearGradient id="linear-gradient-2" x1="365.5" y1="1589" x2="365.5" y2="1561" xlink:href="#linear-gradient"/><style>.cls-6{fill-rule:evenodd;fill:#e0e0e0}</style></defs><path id="Rectangle" opacity=".2" fill="#6c63ff" d="M9 9h139v37H9z"/><path id="Rectangle-2" data-name="Rectangle" fill="url(#linear-gradient)" d="M0 0h141v40H0z"/><path id="Rectangle-3" data-name="Rectangle" fill="#fff" d="M1 1h139v37H1z"/><path id="Oval" d="M352 1575a13.509 13.509 0 1113.5 14 13.758 13.758 0 01-13.5-14z" transform="translate(-330 -1555)" fill="url(#linear-gradient-2)" fill-rule="evenodd"/><circle id="Oval-2" data-name="Oval" cx="35" cy="20" r="12" fill="#6c63ff"/><path id="Rectangle-4" data-name="Rectangle" class="cls-6" d="M390.235 1565.11h21.982v3.91h-21.982v-3.91z" transform="translate(-330 -1555)"/><path id="Rectangle-5" data-name="Rectangle" class="cls-6" d="M390.235 1572.53h60.544v3.9h-60.544v-3.9z" transform="translate(-330 -1555)"/><path id="Rectangle-6" data-name="Rectangle" class="cls-6" d="M390.235 1579.95h60.544v3.9h-60.544v-3.9z" transform="translate(-330 -1555)"/><path id="Path" d="M374 1569.2l-2.726-2.2-7.186 9.94-4.009-3.23-2.079 2.88 5.375 4.33.014-.02 1.36 1.1 9.251-12.8z" transform="translate(-330 -1555)" fill-rule="evenodd" fill="#fff"/></svg>