<svg xmlns="http://www.w3.org/2000/svg" width="350" height="350"><defs><linearGradient id="b" gradientUnits="userSpaceOnUse" x1="0" y1="0" x2="350" y2="0"><stop offset="0" stop-color="#CCDDF8"/><stop offset="1" stop-color="#FFF"/></linearGradient><clipPath id="a"><path clip-rule="evenodd" d="M0 185h350v1H0z"/></clipPath></defs><g clip-path="url(#a)"><path fill="none" stroke="url(#b)" stroke-width="2" stroke-linecap="round" stroke-linejoin="round" transform="translate(0 185)" d="M0 0h350v1H0V0z"/></g><defs><linearGradient id="d" gradientUnits="userSpaceOnUse" x1="0" y1="0" x2="150" y2="0"><stop offset="0" stop-color="#CCDDF8"/><stop offset="1" stop-color="#FFF"/></linearGradient><clipPath id="c"><path clip-rule="evenodd" d="M0 68h150v1H0z"/></clipPath></defs><g clip-path="url(#c)"><path fill="none" stroke="url(#d)" stroke-width="2" stroke-linecap="round" stroke-linejoin="round" transform="translate(0 68)" d="M0 0h150v1H0V0z"/></g><defs><linearGradient id="f" gradientUnits="userSpaceOnUse" x1=".5" y1="0" x2=".5" y2="350"><stop offset="0" stop-color="#FFF"/><stop offset="1" stop-color="#D1E1F9"/></linearGradient><clipPath id="e"><path clip-rule="evenodd" d="M139 0h1v350h-1z"/></clipPath></defs><g clip-path="url(#e)"><path fill="none" stroke="url(#f)" stroke-width="2" stroke-linecap="round" stroke-linejoin="round" transform="translate(139)" d="M0 0h1v350H0V0z"/></g><defs><clipPath id="g"><path clip-rule="evenodd" d="M0-1118h1700v9460H0z"/></clipPath></defs><g clip-path="url(#g)"><path fill="#FFF" d="M140 216c16.569 0 30-13.431 30-30 0-16.569-13.431-30-30-30-16.569 0-30 13.431-30 30 0 16.569 13.431 30 30 30z"/></g><defs><clipPath id="h"><path clip-rule="evenodd" d="M0-1118h1700v9460H0z"/></clipPath></defs><g clip-path="url(#h)"><path fill="none" stroke="#D2E2F9" stroke-linecap="round" stroke-linejoin="round" stroke-opacity=".298" d="M140 216c16.569 0 30-13.431 30-30 0-16.569-13.431-30-30-30-16.569 0-30 13.431-30 30 0 16.569 13.431 30 30 30z"/></g><defs><clipPath id="i"><path clip-rule="evenodd" d="M0-1118h1700v9460H0z"/></clipPath></defs><g clip-path="url(#i)"><path fill="#FFF" d="M139.5 203c9.665 0 17.5-7.835 17.5-17.5s-7.835-17.5-17.5-17.5-17.5 7.835-17.5 17.5 7.835 17.5 17.5 17.5z"/></g><defs><clipPath id="j"><path clip-rule="evenodd" d="M0-1118h1700v9460H0z"/></clipPath></defs><g clip-path="url(#j)"><path fill="none" stroke="#D2E2F9" stroke-linecap="round" stroke-linejoin="round" stroke-opacity=".6" d="M139.5 203c9.665 0 17.5-7.835 17.5-17.5s-7.835-17.5-17.5-17.5-17.5 7.835-17.5 17.5 7.835 17.5 17.5 17.5z"/></g><defs><clipPath id="k"><path clip-rule="evenodd" d="M0-1118h1700v9460H0z"/></clipPath></defs><g clip-path="url(#k)"><path fill="#FFF" d="M140.5 192a6.5 6.5 0 100-13 6.5 6.5 0 000 13z"/></g><defs><linearGradient id="m" gradientUnits="userSpaceOnUse" x1="6.5" y1="0" x2="6.5" y2="13"><stop offset="0" stop-color="#FF5B62"/><stop offset="1" stop-color="#FF8E92"/></linearGradient><clipPath id="l"><path clip-rule="evenodd" d="M0-1118h1700v9460H0z"/></clipPath></defs><g clip-path="url(#l)"><path fill="none" stroke="url(#m)" stroke-width="4" stroke-linecap="round" stroke-linejoin="round" transform="translate(134 179)" d="M6.5 13a6.5 6.5 0 100-13 6.5 6.5 0 000 13z"/></g></svg>