<svg xmlns="http://www.w3.org/2000/svg" width="20" height="19"><defs><linearGradient id="b" gradientUnits="userSpaceOnUse" x1="8.953" y1="0" x2="0" y2="16.882"><stop offset="0" stop-color="#FFF7F2"/><stop offset="1" stop-color="#FF9756"/></linearGradient><clipPath id="a"><path clip-rule="evenodd" d="M-801-4436H899v9600H-801z"/></clipPath></defs><g clip-path="url(#a)"><path fill="none" stroke="url(#b)" stroke-width="3" transform="translate(.612 1.25)" d="M2.189 16.675l14.398-5.524q.143-.055.273-.118.13-.062.246-.132.116-.07.216-.145.1-.076.184-.157.083-.082.15-.169.067-.086.116-.177.05-.091.08-.186.032-.095.045-.192.013-.098.008-.197-.005-.1-.028-.2-.024-.101-.065-.203-.042-.1-.1-.202-.06-.1-.136-.2-.077-.1-.17-.197-.093-.098-.201-.193-.11-.094-.233-.186L6.42.528q-.123-.09-.249-.167-.125-.076-.25-.137-.126-.06-.25-.105-.126-.044-.249-.072-.123-.028-.244-.04-.12-.01-.237-.005-.117.005-.23.028-.112.022-.219.06-.106.04-.207.095-.1.055-.193.126-.093.07-.178.156-.085.087-.162.187-.076.1-.144.215-.067.114-.124.242-.057.127-.104.265-.047.14-.084.289l-3.2 13.17q-.036.149-.059.29-.023.143-.032.277-.008.133-.003.257t.023.238q.02.113.052.215t.078.192q.046.09.105.166.059.077.13.14.072.063.155.111.084.049.179.083.094.034.2.053.105.02.22.024t.239-.007q.123-.011.255-.037.131-.026.269-.066.138-.041.282-.096z"/></g></svg>