<svg id="Dot_Feature" data-name="Dot Feature" xmlns="http://www.w3.org/2000/svg" width="235" height="448"><defs><style>.cls-1{fill:#aab5bf;fill-rule:evenodd}</style></defs><path id="Oval" class="cls-1" d="M1569.44 770.555a.89.89 0 11.89.889.89.89 0 01-.89-.889z" transform="translate(-1565 -615)"/><path id="Oval-2" data-name="Oval" class="cls-1" d="M1589 770.555a.89.89 0 11.89.889.89.89 0 01-.89-.889z" transform="translate(-1565 -615)"/><path id="Oval-3" data-name="Oval" class="cls-1" d="M1608.56 770.555a.885.885 0 11.88.889.882.882 0 01-.88-.889z" transform="translate(-1565 -615)"/><path id="Oval-4" data-name="Oval" class="cls-1" d="M1628.11 770.555a.89.89 0 11.89.889.89.89 0 01-.89-.889z" transform="translate(-1565 -615)"/><path id="Oval-5" data-name="Oval" class="cls-1" d="M1647.67 770.555a.885.885 0 11.89.889.884.884 0 01-.89-.889z" transform="translate(-1565 -615)"/><path id="Oval-6" data-name="Oval" class="cls-1" d="M1667.22 770.555a.89.89 0 11.89.889.89.89 0 01-.89-.889z" transform="translate(-1565 -615)"/><path id="Oval-7" data-name="Oval" class="cls-1" d="M1686.78 770.555a.89.89 0 11.89.889.89.89 0 01-.89-.889z" transform="translate(-1565 -615)"/><path id="Oval-8" data-name="Oval" class="cls-1" d="M1706.33 770.555a.89.89 0 11.89.889.89.89 0 01-.89-.889z" transform="translate(-1565 -615)"/><path id="Oval-9" data-name="Oval" class="cls-1" d="M1725.89 770.555a.89.89 0 11.89.889.89.89 0 01-.89-.889z" transform="translate(-1565 -615)"/><path id="Oval-10" data-name="Oval" class="cls-1" d="M1745.44 770.555a.89.89 0 11.89.889.89.89 0 01-.89-.889z" transform="translate(-1565 -615)"/><path id="Oval-11" data-name="Oval" class="cls-1" d="M1765 770.555a.89.89 0 11.89.889.89.89 0 01-.89-.889z" transform="translate(-1565 -615)"/><path id="Oval-12" data-name="Oval" class="cls-1" d="M1784.56 770.555a.885.885 0 11.88.889.882.882 0 01-.88-.889z" transform="translate(-1565 -615)"/><path id="Oval-13" data-name="Oval" class="cls-1" d="M1804.11 770.555a.89.89 0 11.89.889.89.89 0 01-.89-.889z" transform="translate(-1565 -615)"/><path id="Oval-14" data-name="Oval" class="cls-1" d="M1823.67 770.555a.885.885 0 11.89.889.884.884 0 01-.89-.889z" transform="translate(-1565 -615)"/><path id="Oval-15" data-name="Oval" class="cls-1" d="M1843.22 770.555a.89.89 0 11.89.889.89.89 0 01-.89-.889z" transform="translate(-1565 -615)"/><path id="Oval-16" data-name="Oval" class="cls-1" d="M1569.44 790.111a.89.89 0 11.89.889.89.89 0 01-.89-.889z" transform="translate(-1565 -615)"/><path id="Oval-17" data-name="Oval" class="cls-1" d="M1589 790.111a.89.89 0 11.89.889.89.89 0 01-.89-.889z" transform="translate(-1565 -615)"/><path id="Oval-18" data-name="Oval" class="cls-1" d="M1608.56 790.111a.885.885 0 11.88.889.882.882 0 01-.88-.889z" transform="translate(-1565 -615)"/><path id="Oval-19" data-name="Oval" class="cls-1" d="M1628.11 790.111a.89.89 0 11.89.889.89.89 0 01-.89-.889z" transform="translate(-1565 -615)"/><path id="Oval-20" data-name="Oval" class="cls-1" d="M1647.67 790.111a.885.885 0 11.89.889.884.884 0 01-.89-.889z" transform="translate(-1565 -615)"/><path id="Oval-21" data-name="Oval" class="cls-1" d="M1667.22 790.111a.89.89 0 11.89.889.89.89 0 01-.89-.889z" transform="translate(-1565 -615)"/><path id="Oval-22" data-name="Oval" class="cls-1" d="M1686.78 790.111a.89.89 0 11.89.889.89.89 0 01-.89-.889z" transform="translate(-1565 -615)"/><path id="Oval-23" data-name="Oval" class="cls-1" d="M1706.33 790.111a.89.89 0 11.89.889.89.89 0 01-.89-.889z" transform="translate(-1565 -615)"/><path id="Oval-24" data-name="Oval" class="cls-1" d="M1725.89 790.111a.89.89 0 11.89.889.89.89 0 01-.89-.889z" transform="translate(-1565 -615)"/><path id="Oval-25" data-name="Oval" class="cls-1" d="M1745.44 790.111a.89.89 0 11.89.889.89.89 0 01-.89-.889z" transform="translate(-1565 -615)"/><path id="Oval-26" data-name="Oval" class="cls-1" d="M1765 790.111a.89.89 0 11.89.889.89.89 0 01-.89-.889z" transform="translate(-1565 -615)"/><path id="Oval-27" data-name="Oval" class="cls-1" d="M1784.56 790.111a.885.885 0 11.88.889.882.882 0 01-.88-.889z" transform="translate(-1565 -615)"/><path id="Oval-28" data-name="Oval" class="cls-1" d="M1804.11 790.111a.89.89 0 11.89.889.89.89 0 01-.89-.889z" transform="translate(-1565 -615)"/><path id="Oval-29" data-name="Oval" class="cls-1" d="M1823.67 790.111a.885.885 0 11.89.889.884.884 0 01-.89-.889z" transform="translate(-1565 -615)"/><path id="Oval-30" data-name="Oval" class="cls-1" d="M1843.22 790.111a.89.89 0 11.89.889.89.89 0 01-.89-.889z" transform="translate(-1565 -615)"/><path id="Oval-31" data-name="Oval" class="cls-1" d="M1569.44 809.667a.89.89 0 11.89.888.89.89 0 01-.89-.888z" transform="translate(-1565 -615)"/><path id="Oval-32" data-name="Oval" class="cls-1" d="M1589 809.667a.89.89 0 11.89.888.89.89 0 01-.89-.888z" transform="translate(-1565 -615)"/><path id="Oval-33" data-name="Oval" class="cls-1" d="M1608.56 809.667a.885.885 0 11.88.888.882.882 0 01-.88-.888z" transform="translate(-1565 -615)"/><path id="Oval-34" data-name="Oval" class="cls-1" d="M1628.11 809.667a.89.89 0 11.89.888.89.89 0 01-.89-.888z" transform="translate(-1565 -615)"/><path id="Oval-35" data-name="Oval" class="cls-1" d="M1647.67 809.667a.885.885 0 11.89.888.884.884 0 01-.89-.888z" transform="translate(-1565 -615)"/><path id="Oval-36" data-name="Oval" class="cls-1" d="M1667.22 809.667a.89.89 0 11.89.888.89.89 0 01-.89-.888z" transform="translate(-1565 -615)"/><path id="Oval-37" data-name="Oval" class="cls-1" d="M1686.78 809.667a.89.89 0 11.89.888.89.89 0 01-.89-.888z" transform="translate(-1565 -615)"/><path id="Oval-38" data-name="Oval" class="cls-1" d="M1706.33 809.667a.89.89 0 11.89.888.89.89 0 01-.89-.888z" transform="translate(-1565 -615)"/><path id="Oval-39" data-name="Oval" class="cls-1" d="M1725.89 809.667a.89.89 0 11.89.888.89.89 0 01-.89-.888z" transform="translate(-1565 -615)"/><path id="Oval-40" data-name="Oval" class="cls-1" d="M1745.44 809.667a.89.89 0 11.89.888.89.89 0 01-.89-.888z" transform="translate(-1565 -615)"/><path id="Oval-41" data-name="Oval" class="cls-1" d="M1765 809.667a.89.89 0 11.89.888.89.89 0 01-.89-.888z" transform="translate(-1565 -615)"/><path id="Oval-42" data-name="Oval" class="cls-1" d="M1784.56 809.667a.885.885 0 11.88.888.882.882 0 01-.88-.888z" transform="translate(-1565 -615)"/><path id="Oval-43" data-name="Oval" class="cls-1" d="M1804.11 809.667a.89.89 0 11.89.888.89.89 0 01-.89-.888z" transform="translate(-1565 -615)"/><path id="Oval-44" data-name="Oval" class="cls-1" d="M1823.67 809.667a.885.885 0 11.89.888.884.884 0 01-.89-.888z" transform="translate(-1565 -615)"/><path id="Oval-45" data-name="Oval" class="cls-1" d="M1843.22 809.667a.89.89 0 11.89.888.89.89 0 01-.89-.888z" transform="translate(-1565 -615)"/><path id="Oval-46" data-name="Oval" class="cls-1" d="M1569.44 829.222a.89.89 0 11.89.889.89.89 0 01-.89-.889z" transform="translate(-1565 -615)"/><path id="Oval-47" data-name="Oval" class="cls-1" d="M1589 829.222a.89.89 0 11.89.889.89.89 0 01-.89-.889z" transform="translate(-1565 -615)"/><path id="Oval-48" data-name="Oval" class="cls-1" d="M1608.56 829.222a.885.885 0 11.88.889.882.882 0 01-.88-.889z" transform="translate(-1565 -615)"/><path id="Oval-49" data-name="Oval" class="cls-1" d="M1628.11 829.222a.89.89 0 11.89.889.89.89 0 01-.89-.889z" transform="translate(-1565 -615)"/><path id="Oval-50" data-name="Oval" class="cls-1" d="M1647.67 829.222a.885.885 0 11.89.889.884.884 0 01-.89-.889z" transform="translate(-1565 -615)"/><path id="Oval-51" data-name="Oval" class="cls-1" d="M1667.22 829.222a.89.89 0 11.89.889.89.89 0 01-.89-.889z" transform="translate(-1565 -615)"/><path id="Oval-52" data-name="Oval" class="cls-1" d="M1686.78 829.222a.89.89 0 11.89.889.89.89 0 01-.89-.889z" transform="translate(-1565 -615)"/><path id="Oval-53" data-name="Oval" class="cls-1" d="M1706.33 829.222a.89.89 0 11.89.889.89.89 0 01-.89-.889z" transform="translate(-1565 -615)"/><path id="Oval-54" data-name="Oval" class="cls-1" d="M1725.89 829.222a.89.89 0 11.89.889.89.89 0 01-.89-.889z" transform="translate(-1565 -615)"/><path id="Oval-55" data-name="Oval" class="cls-1" d="M1745.44 829.222a.89.89 0 11.89.889.89.89 0 01-.89-.889z" transform="translate(-1565 -615)"/><path id="Oval-56" data-name="Oval" class="cls-1" d="M1765 829.222a.89.89 0 11.89.889.89.89 0 01-.89-.889z" transform="translate(-1565 -615)"/><path id="Oval-57" data-name="Oval" class="cls-1" d="M1784.56 829.222a.885.885 0 11.88.889.882.882 0 01-.88-.889z" transform="translate(-1565 -615)"/><path id="Oval-58" data-name="Oval" class="cls-1" d="M1804.11 829.222a.89.89 0 11.89.889.89.89 0 01-.89-.889z" transform="translate(-1565 -615)"/><path id="Oval-59" data-name="Oval" class="cls-1" d="M1823.67 829.222a.885.885 0 11.89.889.884.884 0 01-.89-.889z" transform="translate(-1565 -615)"/><path id="Oval-60" data-name="Oval" class="cls-1" d="M1843.22 829.222a.89.89 0 11.89.889.89.89 0 01-.89-.889z" transform="translate(-1565 -615)"/><path id="Oval-61" data-name="Oval" class="cls-1" d="M1569.44 848.778a.89.89 0 11.89.889.89.89 0 01-.89-.889z" transform="translate(-1565 -615)"/><path id="Oval-62" data-name="Oval" class="cls-1" d="M1589 848.778a.89.89 0 11.89.889.89.89 0 01-.89-.889z" transform="translate(-1565 -615)"/><path id="Oval-63" data-name="Oval" class="cls-1" d="M1608.56 848.778a.885.885 0 11.88.889.882.882 0 01-.88-.889z" transform="translate(-1565 -615)"/><path id="Oval-64" data-name="Oval" class="cls-1" d="M1628.11 848.778a.89.89 0 11.89.889.89.89 0 01-.89-.889z" transform="translate(-1565 -615)"/><path id="Oval-65" data-name="Oval" class="cls-1" d="M1647.67 848.778a.885.885 0 11.89.889.884.884 0 01-.89-.889z" transform="translate(-1565 -615)"/><path id="Oval-66" data-name="Oval" class="cls-1" d="M1667.22 848.778a.89.89 0 11.89.889.89.89 0 01-.89-.889z" transform="translate(-1565 -615)"/><path id="Oval-67" data-name="Oval" class="cls-1" d="M1686.78 848.778a.89.89 0 11.89.889.89.89 0 01-.89-.889z" transform="translate(-1565 -615)"/><path id="Oval-68" data-name="Oval" class="cls-1" d="M1706.33 848.778a.89.89 0 11.89.889.89.89 0 01-.89-.889z" transform="translate(-1565 -615)"/><path id="Oval-69" data-name="Oval" class="cls-1" d="M1725.89 848.778a.89.89 0 11.89.889.89.89 0 01-.89-.889z" transform="translate(-1565 -615)"/><path id="Oval-70" data-name="Oval" class="cls-1" d="M1745.44 848.778a.89.89 0 11.89.889.89.89 0 01-.89-.889z" transform="translate(-1565 -615)"/><path id="Oval-71" data-name="Oval" class="cls-1" d="M1765 848.778a.89.89 0 11.89.889.89.89 0 01-.89-.889z" transform="translate(-1565 -615)"/><path id="Oval-72" data-name="Oval" class="cls-1" d="M1784.56 848.778a.885.885 0 11.88.889.882.882 0 01-.88-.889z" transform="translate(-1565 -615)"/><path id="Oval-73" data-name="Oval" class="cls-1" d="M1804.11 848.778a.89.89 0 11.89.889.89.89 0 01-.89-.889z" transform="translate(-1565 -615)"/><path id="Oval-74" data-name="Oval" class="cls-1" d="M1823.67 848.778a.885.885 0 11.89.889.884.884 0 01-.89-.889z" transform="translate(-1565 -615)"/><path id="Oval-75" data-name="Oval" class="cls-1" d="M1843.22 848.778a.89.89 0 11.89.889.89.89 0 01-.89-.889z" transform="translate(-1565 -615)"/><path id="Oval-76" data-name="Oval" class="cls-1" d="M1569.44 868.333a.89.89 0 11.89.889.89.89 0 01-.89-.889z" transform="translate(-1565 -615)"/><path id="Oval-77" data-name="Oval" class="cls-1" d="M1589 868.333a.89.89 0 11.89.889.89.89 0 01-.89-.889z" transform="translate(-1565 -615)"/><path id="Oval-78" data-name="Oval" class="cls-1" d="M1608.56 868.333a.885.885 0 11.88.889.882.882 0 01-.88-.889z" transform="translate(-1565 -615)"/><path id="Oval-79" data-name="Oval" class="cls-1" d="M1628.11 868.333a.89.89 0 11.89.889.89.89 0 01-.89-.889z" transform="translate(-1565 -615)"/><path id="Oval-80" data-name="Oval" class="cls-1" d="M1647.67 868.333a.885.885 0 11.89.889.884.884 0 01-.89-.889z" transform="translate(-1565 -615)"/><path id="Oval-81" data-name="Oval" class="cls-1" d="M1667.22 868.333a.89.89 0 11.89.889.89.89 0 01-.89-.889z" transform="translate(-1565 -615)"/><path id="Oval-82" data-name="Oval" class="cls-1" d="M1686.78 868.333a.89.89 0 11.89.889.89.89 0 01-.89-.889z" transform="translate(-1565 -615)"/><path id="Oval-83" data-name="Oval" class="cls-1" d="M1706.33 868.333a.89.89 0 11.89.889.89.89 0 01-.89-.889z" transform="translate(-1565 -615)"/><path id="Oval-84" data-name="Oval" class="cls-1" d="M1725.89 868.333a.89.89 0 11.89.889.89.89 0 01-.89-.889z" transform="translate(-1565 -615)"/><path id="Oval-85" data-name="Oval" class="cls-1" d="M1745.44 868.333a.89.89 0 11.89.889.89.89 0 01-.89-.889z" transform="translate(-1565 -615)"/><path id="Oval-86" data-name="Oval" class="cls-1" d="M1765 868.333a.89.89 0 11.89.889.89.89 0 01-.89-.889z" transform="translate(-1565 -615)"/><path id="Oval-87" data-name="Oval" class="cls-1" d="M1784.56 868.333a.885.885 0 11.88.889.882.882 0 01-.88-.889z" transform="translate(-1565 -615)"/><path id="Oval-88" data-name="Oval" class="cls-1" d="M1804.11 868.333a.89.89 0 11.89.889.89.89 0 01-.89-.889z" transform="translate(-1565 -615)"/><path id="Oval-89" data-name="Oval" class="cls-1" d="M1823.67 868.333a.885.885 0 11.89.889.884.884 0 01-.89-.889z" transform="translate(-1565 -615)"/><path id="Oval-90" data-name="Oval" class="cls-1" d="M1843.22 868.333a.89.89 0 11.89.889.89.89 0 01-.89-.889z" transform="translate(-1565 -615)"/><path id="Oval-91" data-name="Oval" class="cls-1" d="M1569.44 887.889a.89.89 0 11.89.889.89.89 0 01-.89-.889z" transform="translate(-1565 -615)"/><path id="Oval-92" data-name="Oval" class="cls-1" d="M1589 887.889a.89.89 0 11.89.889.89.89 0 01-.89-.889z" transform="translate(-1565 -615)"/><path id="Oval-93" data-name="Oval" class="cls-1" d="M1608.56 887.889a.885.885 0 11.88.889.882.882 0 01-.88-.889z" transform="translate(-1565 -615)"/><path id="Oval-94" data-name="Oval" class="cls-1" d="M1628.11 887.889a.89.89 0 11.89.889.89.89 0 01-.89-.889z" transform="translate(-1565 -615)"/><path id="Oval-95" data-name="Oval" class="cls-1" d="M1647.67 887.889a.885.885 0 11.89.889.884.884 0 01-.89-.889z" transform="translate(-1565 -615)"/><path id="Oval-96" data-name="Oval" class="cls-1" d="M1667.22 887.889a.89.89 0 11.89.889.89.89 0 01-.89-.889z" transform="translate(-1565 -615)"/><path id="Oval-97" data-name="Oval" class="cls-1" d="M1686.78 887.889a.89.89 0 11.89.889.89.89 0 01-.89-.889z" transform="translate(-1565 -615)"/><path id="Oval-98" data-name="Oval" class="cls-1" d="M1706.33 887.889a.89.89 0 11.89.889.89.89 0 01-.89-.889z" transform="translate(-1565 -615)"/><path id="Oval-99" data-name="Oval" class="cls-1" d="M1725.89 887.889a.89.89 0 11.89.889.89.89 0 01-.89-.889z" transform="translate(-1565 -615)"/><path id="Oval-100" data-name="Oval" class="cls-1" d="M1745.44 887.889a.89.89 0 11.89.889.89.89 0 01-.89-.889z" transform="translate(-1565 -615)"/><path id="Oval-101" data-name="Oval" class="cls-1" d="M1765 887.889a.89.89 0 11.89.889.89.89 0 01-.89-.889z" transform="translate(-1565 -615)"/><path id="Oval-102" data-name="Oval" class="cls-1" d="M1784.56 887.889a.885.885 0 11.88.889.882.882 0 01-.88-.889z" transform="translate(-1565 -615)"/><path id="Oval-103" data-name="Oval" class="cls-1" d="M1804.11 887.889a.89.89 0 11.89.889.89.89 0 01-.89-.889z" transform="translate(-1565 -615)"/><path id="Oval-104" data-name="Oval" class="cls-1" d="M1823.67 887.889a.885.885 0 11.89.889.884.884 0 01-.89-.889z" transform="translate(-1565 -615)"/><path id="Oval-105" data-name="Oval" class="cls-1" d="M1843.22 887.889a.89.89 0 11.89.889.89.89 0 01-.89-.889z" transform="translate(-1565 -615)"/><path id="Oval-106" data-name="Oval" class="cls-1" d="M1569.44 907.444a.89.89 0 11.89.889.89.89 0 01-.89-.889z" transform="translate(-1565 -615)"/><path id="Oval-107" data-name="Oval" class="cls-1" d="M1589 907.444a.89.89 0 11.89.889.89.89 0 01-.89-.889z" transform="translate(-1565 -615)"/><path id="Oval-108" data-name="Oval" class="cls-1" d="M1608.56 907.444a.885.885 0 11.88.889.882.882 0 01-.88-.889z" transform="translate(-1565 -615)"/><path id="Oval-109" data-name="Oval" class="cls-1" d="M1628.11 907.444a.89.89 0 11.89.889.89.89 0 01-.89-.889z" transform="translate(-1565 -615)"/><path id="Oval-110" data-name="Oval" class="cls-1" d="M1647.67 907.444a.885.885 0 11.89.889.884.884 0 01-.89-.889z" transform="translate(-1565 -615)"/><path id="Oval-111" data-name="Oval" class="cls-1" d="M1667.22 907.444a.89.89 0 11.89.889.89.89 0 01-.89-.889z" transform="translate(-1565 -615)"/><path id="Oval-112" data-name="Oval" class="cls-1" d="M1686.78 907.444a.89.89 0 11.89.889.89.89 0 01-.89-.889z" transform="translate(-1565 -615)"/><path id="Oval-113" data-name="Oval" class="cls-1" d="M1706.33 907.444a.89.89 0 11.89.889.89.89 0 01-.89-.889z" transform="translate(-1565 -615)"/><path id="Oval-114" data-name="Oval" class="cls-1" d="M1725.89 907.444a.89.89 0 11.89.889.89.89 0 01-.89-.889z" transform="translate(-1565 -615)"/><path id="Oval-115" data-name="Oval" class="cls-1" d="M1745.44 907.444a.89.89 0 11.89.889.89.89 0 01-.89-.889z" transform="translate(-1565 -615)"/><path id="Oval-116" data-name="Oval" class="cls-1" d="M1765 907.444a.89.89 0 11.89.889.89.89 0 01-.89-.889z" transform="translate(-1565 -615)"/><path id="Oval-117" data-name="Oval" class="cls-1" d="M1784.56 907.444a.885.885 0 11.88.889.882.882 0 01-.88-.889z" transform="translate(-1565 -615)"/><path id="Oval-118" data-name="Oval" class="cls-1" d="M1804.11 907.444a.89.89 0 11.89.889.89.89 0 01-.89-.889z" transform="translate(-1565 -615)"/><path id="Oval-119" data-name="Oval" class="cls-1" d="M1823.67 907.444a.885.885 0 11.89.889.884.884 0 01-.89-.889z" transform="translate(-1565 -615)"/><path id="Oval-120" data-name="Oval" class="cls-1" d="M1843.22 907.444a.89.89 0 11.89.889.89.89 0 01-.89-.889z" transform="translate(-1565 -615)"/><path id="Oval-121" data-name="Oval" class="cls-1" d="M1569.44 925.222a.89.89 0 11.89.889.89.89 0 01-.89-.889z" transform="translate(-1565 -615)"/><path id="Oval-122" data-name="Oval" class="cls-1" d="M1589 925.222a.89.89 0 11.89.889.89.89 0 01-.89-.889z" transform="translate(-1565 -615)"/><path id="Oval-123" data-name="Oval" class="cls-1" d="M1608.56 925.222a.885.885 0 11.88.889.882.882 0 01-.88-.889z" transform="translate(-1565 -615)"/><path id="Oval-124" data-name="Oval" class="cls-1" d="M1628.11 925.222a.89.89 0 11.89.889.89.89 0 01-.89-.889z" transform="translate(-1565 -615)"/><path id="Oval-125" data-name="Oval" class="cls-1" d="M1647.67 925.222a.885.885 0 11.89.889.884.884 0 01-.89-.889z" transform="translate(-1565 -615)"/><path id="Oval-126" data-name="Oval" class="cls-1" d="M1667.22 925.222a.89.89 0 11.89.889.89.89 0 01-.89-.889z" transform="translate(-1565 -615)"/><path id="Oval-127" data-name="Oval" class="cls-1" d="M1686.78 925.222a.89.89 0 11.89.889.89.89 0 01-.89-.889z" transform="translate(-1565 -615)"/><path id="Oval-128" data-name="Oval" class="cls-1" d="M1706.33 925.222a.89.89 0 11.89.889.89.89 0 01-.89-.889z" transform="translate(-1565 -615)"/><path id="Oval-129" data-name="Oval" class="cls-1" d="M1725.89 925.222a.89.89 0 11.89.889.89.89 0 01-.89-.889z" transform="translate(-1565 -615)"/><path id="Oval-130" data-name="Oval" class="cls-1" d="M1745.44 925.222a.89.89 0 11.89.889.89.89 0 01-.89-.889z" transform="translate(-1565 -615)"/><path id="Oval-131" data-name="Oval" class="cls-1" d="M1765 925.222a.89.89 0 11.89.889.89.89 0 01-.89-.889z" transform="translate(-1565 -615)"/><path id="Oval-132" data-name="Oval" class="cls-1" d="M1784.56 925.222a.885.885 0 11.88.889.882.882 0 01-.88-.889z" transform="translate(-1565 -615)"/><path id="Oval-133" data-name="Oval" class="cls-1" d="M1804.11 925.222a.89.89 0 11.89.889.89.89 0 01-.89-.889z" transform="translate(-1565 -615)"/><path id="Oval-134" data-name="Oval" class="cls-1" d="M1823.67 925.222a.885.885 0 11.89.889.884.884 0 01-.89-.889z" transform="translate(-1565 -615)"/><path id="Oval-135" data-name="Oval" class="cls-1" d="M1843.22 925.222a.89.89 0 11.89.889.89.89 0 01-.89-.889z" transform="translate(-1565 -615)"/><path id="Oval-136" data-name="Oval" class="cls-1" d="M1569.44 944.778a.89.89 0 11.89.889.89.89 0 01-.89-.889z" transform="translate(-1565 -615)"/><path id="Oval-137" data-name="Oval" class="cls-1" d="M1589 944.778a.89.89 0 11.89.889.89.89 0 01-.89-.889z" transform="translate(-1565 -615)"/><path id="Oval-138" data-name="Oval" class="cls-1" d="M1608.56 944.778a.885.885 0 11.88.889.882.882 0 01-.88-.889z" transform="translate(-1565 -615)"/><path id="Oval-139" data-name="Oval" class="cls-1" d="M1628.11 944.778a.89.89 0 11.89.889.89.89 0 01-.89-.889z" transform="translate(-1565 -615)"/><path id="Oval-140" data-name="Oval" class="cls-1" d="M1647.67 944.778a.885.885 0 11.89.889.884.884 0 01-.89-.889z" transform="translate(-1565 -615)"/><path id="Oval-141" data-name="Oval" class="cls-1" d="M1667.22 944.778a.89.89 0 11.89.889.89.89 0 01-.89-.889z" transform="translate(-1565 -615)"/><path id="Oval-142" data-name="Oval" class="cls-1" d="M1686.78 944.778a.89.89 0 11.89.889.89.89 0 01-.89-.889z" transform="translate(-1565 -615)"/><path id="Oval-143" data-name="Oval" class="cls-1" d="M1706.33 944.778a.89.89 0 11.89.889.89.89 0 01-.89-.889z" transform="translate(-1565 -615)"/><path id="Oval-144" data-name="Oval" class="cls-1" d="M1725.89 944.778a.89.89 0 11.89.889.89.89 0 01-.89-.889z" transform="translate(-1565 -615)"/><path id="Oval-145" data-name="Oval" class="cls-1" d="M1745.44 944.778a.89.89 0 11.89.889.89.89 0 01-.89-.889z" transform="translate(-1565 -615)"/><path id="Oval-146" data-name="Oval" class="cls-1" d="M1765 944.778a.89.89 0 11.89.889.89.89 0 01-.89-.889z" transform="translate(-1565 -615)"/><path id="Oval-147" data-name="Oval" class="cls-1" d="M1784.56 944.778a.885.885 0 11.88.889.882.882 0 01-.88-.889z" transform="translate(-1565 -615)"/><path id="Oval-148" data-name="Oval" class="cls-1" d="M1804.11 944.778a.89.89 0 11.89.889.89.89 0 01-.89-.889z" transform="translate(-1565 -615)"/><path id="Oval-149" data-name="Oval" class="cls-1" d="M1823.67 944.778a.885.885 0 11.89.889.884.884 0 01-.89-.889z" transform="translate(-1565 -615)"/><path id="Oval-150" data-name="Oval" class="cls-1" d="M1843.22 944.778a.89.89 0 11.89.889.89.89 0 01-.89-.889z" transform="translate(-1565 -615)"/><path id="Oval-151" data-name="Oval" class="cls-1" d="M1569.44 964.333a.89.89 0 11.89.889.89.89 0 01-.89-.889z" transform="translate(-1565 -615)"/><path id="Oval-152" data-name="Oval" class="cls-1" d="M1589 964.333a.89.89 0 11.89.889.89.89 0 01-.89-.889z" transform="translate(-1565 -615)"/><path id="Oval-153" data-name="Oval" class="cls-1" d="M1608.56 964.333a.885.885 0 11.88.889.882.882 0 01-.88-.889z" transform="translate(-1565 -615)"/><path id="Oval-154" data-name="Oval" class="cls-1" d="M1628.11 964.333a.89.89 0 11.89.889.89.89 0 01-.89-.889z" transform="translate(-1565 -615)"/><path id="Oval-155" data-name="Oval" class="cls-1" d="M1647.67 964.333a.885.885 0 11.89.889.884.884 0 01-.89-.889z" transform="translate(-1565 -615)"/><path id="Oval-156" data-name="Oval" class="cls-1" d="M1667.22 964.333a.89.89 0 11.89.889.89.89 0 01-.89-.889z" transform="translate(-1565 -615)"/><path id="Oval-157" data-name="Oval" class="cls-1" d="M1686.78 964.333a.89.89 0 11.89.889.89.89 0 01-.89-.889z" transform="translate(-1565 -615)"/><path id="Oval-158" data-name="Oval" class="cls-1" d="M1706.33 964.333a.89.89 0 11.89.889.89.89 0 01-.89-.889z" transform="translate(-1565 -615)"/><path id="Oval-159" data-name="Oval" class="cls-1" d="M1725.89 964.333a.89.89 0 11.89.889.89.89 0 01-.89-.889z" transform="translate(-1565 -615)"/><path id="Oval-160" data-name="Oval" class="cls-1" d="M1745.44 964.333a.89.89 0 11.89.889.89.89 0 01-.89-.889z" transform="translate(-1565 -615)"/><path id="Oval-161" data-name="Oval" class="cls-1" d="M1765 964.333a.89.89 0 11.89.889.89.89 0 01-.89-.889z" transform="translate(-1565 -615)"/><path id="Oval-162" data-name="Oval" class="cls-1" d="M1784.56 964.333a.885.885 0 11.88.889.882.882 0 01-.88-.889z" transform="translate(-1565 -615)"/><path id="Oval-163" data-name="Oval" class="cls-1" d="M1804.11 964.333a.89.89 0 11.89.889.89.89 0 01-.89-.889z" transform="translate(-1565 -615)"/><path id="Oval-164" data-name="Oval" class="cls-1" d="M1823.67 964.333a.885.885 0 11.89.889.884.884 0 01-.89-.889z" transform="translate(-1565 -615)"/><path id="Oval-165" data-name="Oval" class="cls-1" d="M1843.22 964.333a.89.89 0 11.89.889.89.89 0 01-.89-.889z" transform="translate(-1565 -615)"/><path id="Oval-166" data-name="Oval" class="cls-1" d="M1569.44 983.889a.89.89 0 11.89.889.89.89 0 01-.89-.889z" transform="translate(-1565 -615)"/><path id="Oval-167" data-name="Oval" class="cls-1" d="M1589 983.889a.89.89 0 11.89.889.89.89 0 01-.89-.889z" transform="translate(-1565 -615)"/><path id="Oval-168" data-name="Oval" class="cls-1" d="M1608.56 983.889a.885.885 0 11.88.889.882.882 0 01-.88-.889z" transform="translate(-1565 -615)"/><path id="Oval-169" data-name="Oval" class="cls-1" d="M1628.11 983.889a.89.89 0 11.89.889.89.89 0 01-.89-.889z" transform="translate(-1565 -615)"/><path id="Oval-170" data-name="Oval" class="cls-1" d="M1647.67 983.889a.885.885 0 11.89.889.884.884 0 01-.89-.889z" transform="translate(-1565 -615)"/><path id="Oval-171" data-name="Oval" class="cls-1" d="M1667.22 983.889a.89.89 0 11.89.889.89.89 0 01-.89-.889z" transform="translate(-1565 -615)"/><path id="Oval-172" data-name="Oval" class="cls-1" d="M1686.78 983.889a.89.89 0 11.89.889.89.89 0 01-.89-.889z" transform="translate(-1565 -615)"/><path id="Oval-173" data-name="Oval" class="cls-1" d="M1706.33 983.889a.89.89 0 11.89.889.89.89 0 01-.89-.889z" transform="translate(-1565 -615)"/><path id="Oval-174" data-name="Oval" class="cls-1" d="M1725.89 983.889a.89.89 0 11.89.889.89.89 0 01-.89-.889z" transform="translate(-1565 -615)"/><path id="Oval-175" data-name="Oval" class="cls-1" d="M1745.44 983.889a.89.89 0 11.89.889.89.89 0 01-.89-.889z" transform="translate(-1565 -615)"/><path id="Oval-176" data-name="Oval" class="cls-1" d="M1765 983.889a.89.89 0 11.89.889.89.89 0 01-.89-.889z" transform="translate(-1565 -615)"/><path id="Oval-177" data-name="Oval" class="cls-1" d="M1784.56 983.889a.885.885 0 11.88.889.882.882 0 01-.88-.889z" transform="translate(-1565 -615)"/><path id="Oval-178" data-name="Oval" class="cls-1" d="M1804.11 983.889a.89.89 0 11.89.889.89.89 0 01-.89-.889z" transform="translate(-1565 -615)"/><path id="Oval-179" data-name="Oval" class="cls-1" d="M1823.67 983.889a.885.885 0 11.89.889.884.884 0 01-.89-.889z" transform="translate(-1565 -615)"/><path id="Oval-180" data-name="Oval" class="cls-1" d="M1843.22 983.889a.89.89 0 11.89.889.89.89 0 01-.89-.889z" transform="translate(-1565 -615)"/><path id="Oval-181" data-name="Oval" class="cls-1" d="M1569.44 1003.44a.89.89 0 11.89.89.883.883 0 01-.89-.89z" transform="translate(-1565 -615)"/><path id="Oval-182" data-name="Oval" class="cls-1" d="M1589 1003.44a.89.89 0 11.89.89.883.883 0 01-.89-.89z" transform="translate(-1565 -615)"/><path id="Oval-183" data-name="Oval" class="cls-1" d="M1608.56 1003.44a.885.885 0 11.88.89.875.875 0 01-.88-.89z" transform="translate(-1565 -615)"/><path id="Oval-184" data-name="Oval" class="cls-1" d="M1628.11 1003.44a.89.89 0 11.89.89.883.883 0 01-.89-.89z" transform="translate(-1565 -615)"/><path id="Oval-185" data-name="Oval" class="cls-1" d="M1647.67 1003.44a.885.885 0 11.89.89.877.877 0 01-.89-.89z" transform="translate(-1565 -615)"/><path id="Oval-186" data-name="Oval" class="cls-1" d="M1667.22 1003.44a.89.89 0 11.89.89.883.883 0 01-.89-.89z" transform="translate(-1565 -615)"/><path id="Oval-187" data-name="Oval" class="cls-1" d="M1686.78 1003.44a.89.89 0 11.89.89.883.883 0 01-.89-.89z" transform="translate(-1565 -615)"/><path id="Oval-188" data-name="Oval" class="cls-1" d="M1706.33 1003.44a.89.89 0 11.89.89.883.883 0 01-.89-.89z" transform="translate(-1565 -615)"/><path id="Oval-189" data-name="Oval" class="cls-1" d="M1725.89 1003.44a.89.89 0 11.89.89.883.883 0 01-.89-.89z" transform="translate(-1565 -615)"/><path id="Oval-190" data-name="Oval" class="cls-1" d="M1745.44 1003.44a.89.89 0 11.89.89.883.883 0 01-.89-.89z" transform="translate(-1565 -615)"/><path id="Oval-191" data-name="Oval" class="cls-1" d="M1765 1003.44a.89.89 0 11.89.89.883.883 0 01-.89-.89z" transform="translate(-1565 -615)"/><path id="Oval-192" data-name="Oval" class="cls-1" d="M1784.56 1003.44a.885.885 0 11.88.89.875.875 0 01-.88-.89z" transform="translate(-1565 -615)"/><path id="Oval-193" data-name="Oval" class="cls-1" d="M1804.11 1003.44a.89.89 0 11.89.89.883.883 0 01-.89-.89z" transform="translate(-1565 -615)"/><path id="Oval-194" data-name="Oval" class="cls-1" d="M1823.67 1003.44a.885.885 0 11.89.89.877.877 0 01-.89-.89z" transform="translate(-1565 -615)"/><path id="Oval-195" data-name="Oval" class="cls-1" d="M1843.22 1003.44a.89.89 0 11.89.89.883.883 0 01-.89-.89z" transform="translate(-1565 -615)"/><path id="Oval-196" data-name="Oval" class="cls-1" d="M1569.44 1023a.89.89 0 11.89.89.892.892 0 01-.89-.89z" transform="translate(-1565 -615)"/><path id="Oval-197" data-name="Oval" class="cls-1" d="M1589 1023a.89.89 0 11.89.89.892.892 0 01-.89-.89z" transform="translate(-1565 -615)"/><path id="Oval-198" data-name="Oval" class="cls-1" d="M1608.56 1023a.885.885 0 11.88.89.883.883 0 01-.88-.89z" transform="translate(-1565 -615)"/><path id="Oval-199" data-name="Oval" class="cls-1" d="M1628.11 1023a.89.89 0 11.89.89.892.892 0 01-.89-.89z" transform="translate(-1565 -615)"/><path id="Oval-200" data-name="Oval" class="cls-1" d="M1647.67 1023a.885.885 0 11.89.89.886.886 0 01-.89-.89z" transform="translate(-1565 -615)"/><path id="Oval-201" data-name="Oval" class="cls-1" d="M1667.22 1023a.89.89 0 11.89.89.892.892 0 01-.89-.89z" transform="translate(-1565 -615)"/><path id="Oval-202" data-name="Oval" class="cls-1" d="M1686.78 1023a.89.89 0 11.89.89.892.892 0 01-.89-.89z" transform="translate(-1565 -615)"/><path id="Oval-203" data-name="Oval" class="cls-1" d="M1706.33 1023a.89.89 0 11.89.89.892.892 0 01-.89-.89z" transform="translate(-1565 -615)"/><path id="Oval-204" data-name="Oval" class="cls-1" d="M1725.89 1023a.89.89 0 11.89.89.892.892 0 01-.89-.89z" transform="translate(-1565 -615)"/><path id="Oval-205" data-name="Oval" class="cls-1" d="M1745.44 1023a.89.89 0 11.89.89.892.892 0 01-.89-.89z" transform="translate(-1565 -615)"/><path id="Oval-206" data-name="Oval" class="cls-1" d="M1765 1023a.89.89 0 11.89.89.892.892 0 01-.89-.89z" transform="translate(-1565 -615)"/><path id="Oval-207" data-name="Oval" class="cls-1" d="M1784.56 1023a.885.885 0 11.88.89.883.883 0 01-.88-.89z" transform="translate(-1565 -615)"/><path id="Oval-208" data-name="Oval" class="cls-1" d="M1804.11 1023a.89.89 0 11.89.89.892.892 0 01-.89-.89z" transform="translate(-1565 -615)"/><path id="Oval-209" data-name="Oval" class="cls-1" d="M1823.67 1023a.885.885 0 11.89.89.886.886 0 01-.89-.89z" transform="translate(-1565 -615)"/><path id="Oval-210" data-name="Oval" class="cls-1" d="M1843.22 1023a.89.89 0 11.89.89.892.892 0 01-.89-.89z" transform="translate(-1565 -615)"/><path id="Oval-211" data-name="Oval" class="cls-1" d="M1569.44 1042.56a.89.89 0 11.89.88.886.886 0 01-.89-.88z" transform="translate(-1565 -615)"/><path id="Oval-212" data-name="Oval" class="cls-1" d="M1589 1042.56a.89.89 0 11.89.88.886.886 0 01-.89-.88z" transform="translate(-1565 -615)"/><path id="Oval-213" data-name="Oval" class="cls-1" d="M1608.56 1042.56a.885.885 0 11.88.88.877.877 0 01-.88-.88z" transform="translate(-1565 -615)"/><path id="Oval-214" data-name="Oval" class="cls-1" d="M1628.11 1042.56a.89.89 0 11.89.88.886.886 0 01-.89-.88z" transform="translate(-1565 -615)"/><path id="Oval-215" data-name="Oval" class="cls-1" d="M1647.67 1042.56a.885.885 0 11.89.88.879.879 0 01-.89-.88z" transform="translate(-1565 -615)"/><path id="Oval-216" data-name="Oval" class="cls-1" d="M1667.22 1042.56a.89.89 0 11.89.88.886.886 0 01-.89-.88z" transform="translate(-1565 -615)"/><path id="Oval-217" data-name="Oval" class="cls-1" d="M1686.78 1042.56a.89.89 0 11.89.88.886.886 0 01-.89-.88z" transform="translate(-1565 -615)"/><path id="Oval-218" data-name="Oval" class="cls-1" d="M1706.33 1042.56a.89.89 0 11.89.88.886.886 0 01-.89-.88z" transform="translate(-1565 -615)"/><path id="Oval-219" data-name="Oval" class="cls-1" d="M1725.89 1042.56a.89.89 0 11.89.88.886.886 0 01-.89-.88z" transform="translate(-1565 -615)"/><path id="Oval-220" data-name="Oval" class="cls-1" d="M1745.44 1042.56a.89.89 0 11.89.88.886.886 0 01-.89-.88z" transform="translate(-1565 -615)"/><path id="Oval-221" data-name="Oval" class="cls-1" d="M1765 1042.56a.89.89 0 11.89.88.886.886 0 01-.89-.88z" transform="translate(-1565 -615)"/><path id="Oval-222" data-name="Oval" class="cls-1" d="M1784.56 1042.56a.885.885 0 11.88.88.877.877 0 01-.88-.88z" transform="translate(-1565 -615)"/><path id="Oval-223" data-name="Oval" class="cls-1" d="M1804.11 1042.56a.89.89 0 11.89.88.886.886 0 01-.89-.88z" transform="translate(-1565 -615)"/><path id="Oval-224" data-name="Oval" class="cls-1" d="M1823.67 1042.56a.885.885 0 11.89.88.879.879 0 01-.89-.88z" transform="translate(-1565 -615)"/><path id="Oval-225" data-name="Oval" class="cls-1" d="M1843.22 1042.56a.89.89 0 11.89.88.886.886 0 01-.89-.88z" transform="translate(-1565 -615)"/><path id="Oval-226" data-name="Oval" class="cls-1" d="M1569.44 1062.11a.89.89 0 11.89.89.892.892 0 01-.89-.89z" transform="translate(-1565 -615)"/><path id="Oval-227" data-name="Oval" class="cls-1" d="M1589 1062.11a.89.89 0 11.89.89.892.892 0 01-.89-.89z" transform="translate(-1565 -615)"/><path id="Oval-228" data-name="Oval" class="cls-1" d="M1608.56 1062.11a.885.885 0 11.88.89.883.883 0 01-.88-.89z" transform="translate(-1565 -615)"/><path id="Oval-229" data-name="Oval" class="cls-1" d="M1628.11 1062.11a.89.89 0 11.89.89.892.892 0 01-.89-.89z" transform="translate(-1565 -615)"/><path id="Oval-230" data-name="Oval" class="cls-1" d="M1647.67 1062.11a.885.885 0 11.89.89.886.886 0 01-.89-.89z" transform="translate(-1565 -615)"/><path id="Oval-231" data-name="Oval" class="cls-1" d="M1667.22 1062.11a.89.89 0 11.89.89.892.892 0 01-.89-.89z" transform="translate(-1565 -615)"/><path id="Oval-232" data-name="Oval" class="cls-1" d="M1686.78 1062.11a.89.89 0 11.89.89.892.892 0 01-.89-.89z" transform="translate(-1565 -615)"/><path id="Oval-233" data-name="Oval" class="cls-1" d="M1706.33 1062.11a.89.89 0 11.89.89.892.892 0 01-.89-.89z" transform="translate(-1565 -615)"/><path id="Oval-234" data-name="Oval" class="cls-1" d="M1725.89 1062.11a.89.89 0 11.89.89.892.892 0 01-.89-.89z" transform="translate(-1565 -615)"/><path id="Oval-235" data-name="Oval" class="cls-1" d="M1745.44 1062.11a.89.89 0 11.89.89.892.892 0 01-.89-.89z" transform="translate(-1565 -615)"/><path id="Oval-236" data-name="Oval" class="cls-1" d="M1765 1062.11a.89.89 0 11.89.89.892.892 0 01-.89-.89z" transform="translate(-1565 -615)"/><path id="Oval-237" data-name="Oval" class="cls-1" d="M1784.56 1062.11a.885.885 0 11.88.89.883.883 0 01-.88-.89z" transform="translate(-1565 -615)"/><path id="Oval-238" data-name="Oval" class="cls-1" d="M1804.11 1062.11a.89.89 0 11.89.89.892.892 0 01-.89-.89z" transform="translate(-1565 -615)"/><path id="Oval-239" data-name="Oval" class="cls-1" d="M1823.67 1062.11a.885.885 0 11.89.89.886.886 0 01-.89-.89z" transform="translate(-1565 -615)"/><path id="Oval-240" data-name="Oval" class="cls-1" d="M1843.22 1062.11a.89.89 0 11.89.89.892.892 0 01-.89-.89z" transform="translate(-1565 -615)"/><path id="Oval-241" data-name="Oval" class="cls-1" d="M1565 615.889a.89.89 0 11.89.889.89.89 0 01-.89-.889z" transform="translate(-1565 -615)"/><path id="Oval-242" data-name="Oval" class="cls-1" d="M1584.56 615.889a.885.885 0 11.88.889.882.882 0 01-.88-.889z" transform="translate(-1565 -615)"/><path id="Oval-243" data-name="Oval" class="cls-1" d="M1604.11 615.889a.89.89 0 11.89.889.89.89 0 01-.89-.889z" transform="translate(-1565 -615)"/><path id="Oval-244" data-name="Oval" class="cls-1" d="M1623.67 615.889a.885.885 0 11.89.889.884.884 0 01-.89-.889z" transform="translate(-1565 -615)"/><path id="Oval-245" data-name="Oval" class="cls-1" d="M1643.22 615.889a.89.89 0 11.89.889.89.89 0 01-.89-.889z" transform="translate(-1565 -615)"/><path id="Oval-246" data-name="Oval" class="cls-1" d="M1662.78 615.889a.89.89 0 11.89.889.89.89 0 01-.89-.889z" transform="translate(-1565 -615)"/><path id="Oval-247" data-name="Oval" class="cls-1" d="M1682.33 615.889a.89.89 0 11.89.889.89.89 0 01-.89-.889z" transform="translate(-1565 -615)"/><path id="Oval-248" data-name="Oval" class="cls-1" d="M1701.89 615.889a.89.89 0 11.89.889.89.89 0 01-.89-.889z" transform="translate(-1565 -615)"/><path id="Oval-249" data-name="Oval" class="cls-1" d="M1721.44 615.889a.89.89 0 11.89.889.89.89 0 01-.89-.889z" transform="translate(-1565 -615)"/><path id="Oval-250" data-name="Oval" class="cls-1" d="M1741 615.889a.89.89 0 11.89.889.89.89 0 01-.89-.889z" transform="translate(-1565 -615)"/><path id="Oval-251" data-name="Oval" class="cls-1" d="M1760.56 615.889a.885.885 0 11.88.889.882.882 0 01-.88-.889z" transform="translate(-1565 -615)"/><path id="Oval-252" data-name="Oval" class="cls-1" d="M1780.11 615.889a.89.89 0 11.89.889.89.89 0 01-.89-.889z" transform="translate(-1565 -615)"/><path id="Oval-253" data-name="Oval" class="cls-1" d="M1799.67 615.889a.885.885 0 11.89.889.884.884 0 01-.89-.889z" transform="translate(-1565 -615)"/><path id="Oval-254" data-name="Oval" class="cls-1" d="M1819.22 615.889a.89.89 0 11.89.889.89.89 0 01-.89-.889z" transform="translate(-1565 -615)"/><path id="Oval-255" data-name="Oval" class="cls-1" d="M1838.78 615.889a.89.89 0 11.89.889.89.89 0 01-.89-.889z" transform="translate(-1565 -615)"/><path id="Oval-256" data-name="Oval" class="cls-1" d="M1569.44 635.444a.89.89 0 11.89.889.89.89 0 01-.89-.889z" transform="translate(-1565 -615)"/><path id="Oval-257" data-name="Oval" class="cls-1" d="M1589 635.444a.89.89 0 11.89.889.89.89 0 01-.89-.889z" transform="translate(-1565 -615)"/><path id="Oval-258" data-name="Oval" class="cls-1" d="M1608.56 635.444a.885.885 0 11.88.889.882.882 0 01-.88-.889z" transform="translate(-1565 -615)"/><path id="Oval-259" data-name="Oval" class="cls-1" d="M1628.11 635.444a.89.89 0 11.89.889.89.89 0 01-.89-.889z" transform="translate(-1565 -615)"/><path id="Oval-260" data-name="Oval" class="cls-1" d="M1647.67 635.444a.885.885 0 11.89.889.884.884 0 01-.89-.889z" transform="translate(-1565 -615)"/><path id="Oval-261" data-name="Oval" class="cls-1" d="M1667.22 635.444a.89.89 0 11.89.889.89.89 0 01-.89-.889z" transform="translate(-1565 -615)"/><path id="Oval-262" data-name="Oval" class="cls-1" d="M1686.78 635.444a.89.89 0 11.89.889.89.89 0 01-.89-.889z" transform="translate(-1565 -615)"/><path id="Oval-263" data-name="Oval" class="cls-1" d="M1706.33 635.444a.89.89 0 11.89.889.89.89 0 01-.89-.889z" transform="translate(-1565 -615)"/><path id="Oval-264" data-name="Oval" class="cls-1" d="M1725.89 635.444a.89.89 0 11.89.889.89.89 0 01-.89-.889z" transform="translate(-1565 -615)"/><path id="Oval-265" data-name="Oval" class="cls-1" d="M1745.44 635.444a.89.89 0 11.89.889.89.89 0 01-.89-.889z" transform="translate(-1565 -615)"/><path id="Oval-266" data-name="Oval" class="cls-1" d="M1765 635.444a.89.89 0 11.89.889.89.89 0 01-.89-.889z" transform="translate(-1565 -615)"/><path id="Oval-267" data-name="Oval" class="cls-1" d="M1784.56 635.444a.885.885 0 11.88.889.882.882 0 01-.88-.889z" transform="translate(-1565 -615)"/><path id="Oval-268" data-name="Oval" class="cls-1" d="M1804.11 635.444a.89.89 0 11.89.889.89.89 0 01-.89-.889z" transform="translate(-1565 -615)"/><path id="Oval-269" data-name="Oval" class="cls-1" d="M1823.67 635.444a.885.885 0 11.89.889.884.884 0 01-.89-.889z" transform="translate(-1565 -615)"/><path id="Oval-270" data-name="Oval" class="cls-1" d="M1843.22 635.444a.89.89 0 11.89.889.89.89 0 01-.89-.889z" transform="translate(-1565 -615)"/><path id="Oval-271" data-name="Oval" class="cls-1" d="M1569.44 655a.89.89 0 11.89.889.89.89 0 01-.89-.889z" transform="translate(-1565 -615)"/><path id="Oval-272" data-name="Oval" class="cls-1" d="M1589 655a.89.89 0 11.89.889.89.89 0 01-.89-.889z" transform="translate(-1565 -615)"/><path id="Oval-273" data-name="Oval" class="cls-1" d="M1608.56 655a.885.885 0 11.88.889.882.882 0 01-.88-.889z" transform="translate(-1565 -615)"/><path id="Oval-274" data-name="Oval" class="cls-1" d="M1628.11 655a.89.89 0 11.89.889.89.89 0 01-.89-.889z" transform="translate(-1565 -615)"/><path id="Oval-275" data-name="Oval" class="cls-1" d="M1647.67 655a.885.885 0 11.89.889.884.884 0 01-.89-.889z" transform="translate(-1565 -615)"/><path id="Oval-276" data-name="Oval" class="cls-1" d="M1667.22 655a.89.89 0 11.89.889.89.89 0 01-.89-.889z" transform="translate(-1565 -615)"/><path id="Oval-277" data-name="Oval" class="cls-1" d="M1686.78 655a.89.89 0 11.89.889.89.89 0 01-.89-.889z" transform="translate(-1565 -615)"/><path id="Oval-278" data-name="Oval" class="cls-1" d="M1706.33 655a.89.89 0 11.89.889.89.89 0 01-.89-.889z" transform="translate(-1565 -615)"/><path id="Oval-279" data-name="Oval" class="cls-1" d="M1725.89 655a.89.89 0 11.89.889.89.89 0 01-.89-.889z" transform="translate(-1565 -615)"/><path id="Oval-280" data-name="Oval" class="cls-1" d="M1745.44 655a.89.89 0 11.89.889.89.89 0 01-.89-.889z" transform="translate(-1565 -615)"/><path id="Oval-281" data-name="Oval" class="cls-1" d="M1765 655a.89.89 0 11.89.889.89.89 0 01-.89-.889z" transform="translate(-1565 -615)"/><path id="Oval-282" data-name="Oval" class="cls-1" d="M1784.56 655a.885.885 0 11.88.889.882.882 0 01-.88-.889z" transform="translate(-1565 -615)"/><path id="Oval-283" data-name="Oval" class="cls-1" d="M1804.11 655a.89.89 0 11.89.889.89.89 0 01-.89-.889z" transform="translate(-1565 -615)"/><path id="Oval-284" data-name="Oval" class="cls-1" d="M1823.67 655a.885.885 0 11.89.889.884.884 0 01-.89-.889z" transform="translate(-1565 -615)"/><path id="Oval-285" data-name="Oval" class="cls-1" d="M1843.22 655a.89.89 0 11.89.889.89.89 0 01-.89-.889z" transform="translate(-1565 -615)"/><path id="Oval-286" data-name="Oval" class="cls-1" d="M1569.44 674.555a.89.89 0 11.89.889.89.89 0 01-.89-.889z" transform="translate(-1565 -615)"/><path id="Oval-287" data-name="Oval" class="cls-1" d="M1589 674.555a.89.89 0 11.89.889.89.89 0 01-.89-.889z" transform="translate(-1565 -615)"/><path id="Oval-288" data-name="Oval" class="cls-1" d="M1608.56 674.555a.885.885 0 11.88.889.882.882 0 01-.88-.889z" transform="translate(-1565 -615)"/><path id="Oval-289" data-name="Oval" class="cls-1" d="M1628.11 674.555a.89.89 0 11.89.889.89.89 0 01-.89-.889z" transform="translate(-1565 -615)"/><path id="Oval-290" data-name="Oval" class="cls-1" d="M1647.67 674.555a.885.885 0 11.89.889.884.884 0 01-.89-.889z" transform="translate(-1565 -615)"/><path id="Oval-291" data-name="Oval" class="cls-1" d="M1667.22 674.555a.89.89 0 11.89.889.89.89 0 01-.89-.889z" transform="translate(-1565 -615)"/><path id="Oval-292" data-name="Oval" class="cls-1" d="M1686.78 674.555a.89.89 0 11.89.889.89.89 0 01-.89-.889z" transform="translate(-1565 -615)"/><path id="Oval-293" data-name="Oval" class="cls-1" d="M1706.33 674.555a.89.89 0 11.89.889.89.89 0 01-.89-.889z" transform="translate(-1565 -615)"/><path id="Oval-294" data-name="Oval" class="cls-1" d="M1725.89 674.555a.89.89 0 11.89.889.89.89 0 01-.89-.889z" transform="translate(-1565 -615)"/><path id="Oval-295" data-name="Oval" class="cls-1" d="M1745.44 674.555a.89.89 0 11.89.889.89.89 0 01-.89-.889z" transform="translate(-1565 -615)"/><path id="Oval-296" data-name="Oval" class="cls-1" d="M1765 674.555a.89.89 0 11.89.889.89.89 0 01-.89-.889z" transform="translate(-1565 -615)"/><path id="Oval-297" data-name="Oval" class="cls-1" d="M1784.56 674.555a.885.885 0 11.88.889.882.882 0 01-.88-.889z" transform="translate(-1565 -615)"/><path id="Oval-298" data-name="Oval" class="cls-1" d="M1804.11 674.555a.89.89 0 11.89.889.89.89 0 01-.89-.889z" transform="translate(-1565 -615)"/><path id="Oval-299" data-name="Oval" class="cls-1" d="M1823.67 674.555a.885.885 0 11.89.889.884.884 0 01-.89-.889z" transform="translate(-1565 -615)"/><path id="Oval-300" data-name="Oval" class="cls-1" d="M1843.22 674.555a.89.89 0 11.89.889.89.89 0 01-.89-.889z" transform="translate(-1565 -615)"/><path id="Oval-301" data-name="Oval" class="cls-1" d="M1569.44 694.111a.89.89 0 11.89.889.89.89 0 01-.89-.889z" transform="translate(-1565 -615)"/><path id="Oval-302" data-name="Oval" class="cls-1" d="M1589 694.111a.89.89 0 11.89.889.89.89 0 01-.89-.889z" transform="translate(-1565 -615)"/><path id="Oval-303" data-name="Oval" class="cls-1" d="M1608.56 694.111a.885.885 0 11.88.889.882.882 0 01-.88-.889z" transform="translate(-1565 -615)"/><path id="Oval-304" data-name="Oval" class="cls-1" d="M1628.11 694.111a.89.89 0 11.89.889.89.89 0 01-.89-.889z" transform="translate(-1565 -615)"/><path id="Oval-305" data-name="Oval" class="cls-1" d="M1647.67 694.111a.885.885 0 11.89.889.884.884 0 01-.89-.889z" transform="translate(-1565 -615)"/><path id="Oval-306" data-name="Oval" class="cls-1" d="M1667.22 694.111a.89.89 0 11.89.889.89.89 0 01-.89-.889z" transform="translate(-1565 -615)"/><path id="Oval-307" data-name="Oval" class="cls-1" d="M1686.78 694.111a.89.89 0 11.89.889.89.89 0 01-.89-.889z" transform="translate(-1565 -615)"/><path id="Oval-308" data-name="Oval" class="cls-1" d="M1706.33 694.111a.89.89 0 11.89.889.89.89 0 01-.89-.889z" transform="translate(-1565 -615)"/><path id="Oval-309" data-name="Oval" class="cls-1" d="M1725.89 694.111a.89.89 0 11.89.889.89.89 0 01-.89-.889z" transform="translate(-1565 -615)"/><path id="Oval-310" data-name="Oval" class="cls-1" d="M1745.44 694.111a.89.89 0 11.89.889.89.89 0 01-.89-.889z" transform="translate(-1565 -615)"/><path id="Oval-311" data-name="Oval" class="cls-1" d="M1765 694.111a.89.89 0 11.89.889.89.89 0 01-.89-.889z" transform="translate(-1565 -615)"/><path id="Oval-312" data-name="Oval" class="cls-1" d="M1784.56 694.111a.885.885 0 11.88.889.882.882 0 01-.88-.889z" transform="translate(-1565 -615)"/><path id="Oval-313" data-name="Oval" class="cls-1" d="M1804.11 694.111a.89.89 0 11.89.889.89.89 0 01-.89-.889z" transform="translate(-1565 -615)"/><path id="Oval-314" data-name="Oval" class="cls-1" d="M1823.67 694.111a.885.885 0 11.89.889.884.884 0 01-.89-.889z" transform="translate(-1565 -615)"/><path id="Oval-315" data-name="Oval" class="cls-1" d="M1843.22 694.111a.89.89 0 11.89.889.89.89 0 01-.89-.889z" transform="translate(-1565 -615)"/><path id="Oval-316" data-name="Oval" class="cls-1" d="M1569.44 713.667a.89.89 0 11.89.889.89.89 0 01-.89-.889z" transform="translate(-1565 -615)"/><path id="Oval-317" data-name="Oval" class="cls-1" d="M1589 713.667a.89.89 0 11.89.889.89.89 0 01-.89-.889z" transform="translate(-1565 -615)"/><path id="Oval-318" data-name="Oval" class="cls-1" d="M1608.56 713.667a.885.885 0 11.88.889.882.882 0 01-.88-.889z" transform="translate(-1565 -615)"/><path id="Oval-319" data-name="Oval" class="cls-1" d="M1628.11 713.667a.89.89 0 11.89.889.89.89 0 01-.89-.889z" transform="translate(-1565 -615)"/><path id="Oval-320" data-name="Oval" class="cls-1" d="M1647.67 713.667a.885.885 0 11.89.889.884.884 0 01-.89-.889z" transform="translate(-1565 -615)"/><path id="Oval-321" data-name="Oval" class="cls-1" d="M1667.22 713.667a.89.89 0 11.89.889.89.89 0 01-.89-.889z" transform="translate(-1565 -615)"/><path id="Oval-322" data-name="Oval" class="cls-1" d="M1686.78 713.667a.89.89 0 11.89.889.89.89 0 01-.89-.889z" transform="translate(-1565 -615)"/><path id="Oval-323" data-name="Oval" class="cls-1" d="M1706.33 713.667a.89.89 0 11.89.889.89.89 0 01-.89-.889z" transform="translate(-1565 -615)"/><path id="Oval-324" data-name="Oval" class="cls-1" d="M1725.89 713.667a.89.89 0 11.89.889.89.89 0 01-.89-.889z" transform="translate(-1565 -615)"/><path id="Oval-325" data-name="Oval" class="cls-1" d="M1745.44 713.667a.89.89 0 11.89.889.89.89 0 01-.89-.889z" transform="translate(-1565 -615)"/><path id="Oval-326" data-name="Oval" class="cls-1" d="M1765 713.667a.89.89 0 11.89.889.89.89 0 01-.89-.889z" transform="translate(-1565 -615)"/><path id="Oval-327" data-name="Oval" class="cls-1" d="M1784.56 713.667a.885.885 0 11.88.889.882.882 0 01-.88-.889z" transform="translate(-1565 -615)"/><path id="Oval-328" data-name="Oval" class="cls-1" d="M1804.11 713.667a.89.89 0 11.89.889.89.89 0 01-.89-.889z" transform="translate(-1565 -615)"/><path id="Oval-329" data-name="Oval" class="cls-1" d="M1823.67 713.667a.885.885 0 11.89.889.884.884 0 01-.89-.889z" transform="translate(-1565 -615)"/><path id="Oval-330" data-name="Oval" class="cls-1" d="M1843.22 713.667a.89.89 0 11.89.889.89.89 0 01-.89-.889z" transform="translate(-1565 -615)"/><path id="Oval-331" data-name="Oval" class="cls-1" d="M1569.44 733.222a.89.89 0 11.89.889.89.89 0 01-.89-.889z" transform="translate(-1565 -615)"/><path id="Oval-332" data-name="Oval" class="cls-1" d="M1589 733.222a.89.89 0 11.89.889.89.89 0 01-.89-.889z" transform="translate(-1565 -615)"/><path id="Oval-333" data-name="Oval" class="cls-1" d="M1608.56 733.222a.885.885 0 11.88.889.882.882 0 01-.88-.889z" transform="translate(-1565 -615)"/><path id="Oval-334" data-name="Oval" class="cls-1" d="M1628.11 733.222a.89.89 0 11.89.889.89.89 0 01-.89-.889z" transform="translate(-1565 -615)"/><path id="Oval-335" data-name="Oval" class="cls-1" d="M1647.67 733.222a.885.885 0 11.89.889.884.884 0 01-.89-.889z" transform="translate(-1565 -615)"/><path id="Oval-336" data-name="Oval" class="cls-1" d="M1667.22 733.222a.89.89 0 11.89.889.89.89 0 01-.89-.889z" transform="translate(-1565 -615)"/><path id="Oval-337" data-name="Oval" class="cls-1" d="M1686.78 733.222a.89.89 0 11.89.889.89.89 0 01-.89-.889z" transform="translate(-1565 -615)"/><path id="Oval-338" data-name="Oval" class="cls-1" d="M1706.33 733.222a.89.89 0 11.89.889.89.89 0 01-.89-.889z" transform="translate(-1565 -615)"/><path id="Oval-339" data-name="Oval" class="cls-1" d="M1725.89 733.222a.89.89 0 11.89.889.89.89 0 01-.89-.889z" transform="translate(-1565 -615)"/><path id="Oval-340" data-name="Oval" class="cls-1" d="M1745.44 733.222a.89.89 0 11.89.889.89.89 0 01-.89-.889z" transform="translate(-1565 -615)"/><path id="Oval-341" data-name="Oval" class="cls-1" d="M1765 733.222a.89.89 0 11.89.889.89.89 0 01-.89-.889z" transform="translate(-1565 -615)"/><path id="Oval-342" data-name="Oval" class="cls-1" d="M1784.56 733.222a.885.885 0 11.88.889.882.882 0 01-.88-.889z" transform="translate(-1565 -615)"/><path id="Oval-343" data-name="Oval" class="cls-1" d="M1804.11 733.222a.89.89 0 11.89.889.89.89 0 01-.89-.889z" transform="translate(-1565 -615)"/><path id="Oval-344" data-name="Oval" class="cls-1" d="M1823.67 733.222a.885.885 0 11.89.889.884.884 0 01-.89-.889z" transform="translate(-1565 -615)"/><path id="Oval-345" data-name="Oval" class="cls-1" d="M1843.22 733.222a.89.89 0 11.89.889.89.89 0 01-.89-.889z" transform="translate(-1565 -615)"/><path id="Oval-346" data-name="Oval" class="cls-1" d="M1569.44 752.778a.89.89 0 11.89.889.89.89 0 01-.89-.889z" transform="translate(-1565 -615)"/><path id="Oval-347" data-name="Oval" class="cls-1" d="M1589 752.778a.89.89 0 11.89.889.89.89 0 01-.89-.889z" transform="translate(-1565 -615)"/><path id="Oval-348" data-name="Oval" class="cls-1" d="M1608.56 752.778a.885.885 0 11.88.889.882.882 0 01-.88-.889z" transform="translate(-1565 -615)"/><path id="Oval-349" data-name="Oval" class="cls-1" d="M1628.11 752.778a.89.89 0 11.89.889.89.89 0 01-.89-.889z" transform="translate(-1565 -615)"/><path id="Oval-350" data-name="Oval" class="cls-1" d="M1647.67 752.778a.885.885 0 11.89.889.884.884 0 01-.89-.889z" transform="translate(-1565 -615)"/><path id="Oval-351" data-name="Oval" class="cls-1" d="M1667.22 752.778a.89.89 0 11.89.889.89.89 0 01-.89-.889z" transform="translate(-1565 -615)"/><path id="Oval-352" data-name="Oval" class="cls-1" d="M1686.78 752.778a.89.89 0 11.89.889.89.89 0 01-.89-.889z" transform="translate(-1565 -615)"/><path id="Oval-353" data-name="Oval" class="cls-1" d="M1706.33 752.778a.89.89 0 11.89.889.89.89 0 01-.89-.889z" transform="translate(-1565 -615)"/><path id="Oval-354" data-name="Oval" class="cls-1" d="M1725.89 752.778a.89.89 0 11.89.889.89.89 0 01-.89-.889z" transform="translate(-1565 -615)"/><path id="Oval-355" data-name="Oval" class="cls-1" d="M1745.44 752.778a.89.89 0 11.89.889.89.89 0 01-.89-.889z" transform="translate(-1565 -615)"/><path id="Oval-356" data-name="Oval" class="cls-1" d="M1765 752.778a.89.89 0 11.89.889.89.89 0 01-.89-.889z" transform="translate(-1565 -615)"/><path id="Oval-357" data-name="Oval" class="cls-1" d="M1784.56 752.778a.885.885 0 11.88.889.882.882 0 01-.88-.889z" transform="translate(-1565 -615)"/><path id="Oval-358" data-name="Oval" class="cls-1" d="M1804.11 752.778a.89.89 0 11.89.889.89.89 0 01-.89-.889z" transform="translate(-1565 -615)"/><path id="Oval-359" data-name="Oval" class="cls-1" d="M1823.67 752.778a.885.885 0 11.89.889.884.884 0 01-.89-.889z" transform="translate(-1565 -615)"/><path id="Oval-360" data-name="Oval" class="cls-1" d="M1843.22 752.778a.89.89 0 11.89.889.89.89 0 01-.89-.889z" transform="translate(-1565 -615)"/></svg>