<svg xmlns="http://www.w3.org/2000/svg" width="36.75" height="38.87"><defs><linearGradient id="a" x1="849.594" y1="1443.53" x2="849.594" y2="1404.66" gradientUnits="userSpaceOnUse"><stop offset="NaN" stop-color="gray"/><stop offset="NaN" stop-color="gray" stop-opacity=".251"/><stop offset="Infinity" stop-color="#NaNNaNNaN" stop-opacity=".102"/></linearGradient></defs><path d="M849.6 1404.64a18.364 18.364 0 0118.376 18.38v2.12a18.364 18.364 0 01-18.376 18.38 18.364 18.364 0 01-18.375-18.38v-2.12a18.364 18.364 0 0118.375-18.38z" transform="translate(-831.219 -1404.66)" fill="url(#a)" fill-rule="evenodd"/><path data-name="Rectangle" d="M19.281.98a16.488 16.488 0 0116.5 16.5v4a16.482 16.482 0 01-16.5 16.5 16.481 16.481 0 01-16.5-16.5v-4a16.487 16.487 0 0116.5-16.5z" fill="#6c63ff" fill-rule="evenodd"/><path d="M30.389 23.51c.341-2.05-.551-4.07-1.423-5.96l-.916-1.99v.06a7.969 7.969 0 01-6.1 7.67v1.35a7.989 7.989 0 016.1 7.67v3.67H11.781v-3.67a7.99 7.99 0 016.1-7.67v-1.35a7.991 7.991 0 01-6.076-7.08 7.9 7.9 0 014.921-7.88 3.143 3.143 0 012.649-2.85 10 10 0 01.674-1.34 4.266 4.266 0 013.611-2.15 4.688 4.688 0 012.264.76 10.484 10.484 0 014.1 5 23.525 23.525 0 011.5 6.32c.4 3.2.538 6.65-1.135 9.44z" fill="#fff" fill-rule="evenodd"/></svg>