<svg xmlns="http://www.w3.org/2000/svg" xmlns:xlink="http://www.w3.org/1999/xlink" width="126" height="77"><defs><linearGradient id="linear-gradient" x1="60.5" y1="69" x2="60.5" gradientUnits="userSpaceOnUse"><stop offset="NaN" stop-color="gray"/><stop offset="NaN" stop-color="gray" stop-opacity=".251"/><stop offset="Infinity" stop-color="#NaNNaNNaN" stop-opacity=".102"/></linearGradient><linearGradient id="linear-gradient-2" x1="9" y1="36.5" x2="50" y2="36.5" xlink:href="#linear-gradient"/><style>.cls-1,.cls-5{fill:#6c63ff}.cls-1{opacity:.2}</style></defs><path id="Rectangle" class="cls-1" d="M21 9h105v68H21z"/><path id="Rectangle-2" data-name="Rectangle" fill="url(#linear-gradient)" d="M0 0h121v69H0z"/><path id="Rectangle-3" data-name="Rectangle" fill="#fff" d="M1 10h118v58H1z"/><path id="Rectangle-4" data-name="Rectangle" fill="url(#linear-gradient-2)" d="M9 15h41v43H9z"/><path id="Rectangle-5" data-name="Rectangle" class="cls-5" d="M11 16h39v41H11z"/><path id="Path" d="M267.477 1471.68c.372-2.34-.611-4.67-1.568-6.84l-1.007-2.27v.06a9.055 9.055 0 01-6.713 8.8v1.55a9.1 9.1 0 016.713 8.8v4.22H247v-4.22a9.1 9.1 0 016.712-8.8v-1.55a9.132 9.132 0 01-1.267-17.16 3.536 3.536 0 012.915-3.26 11.358 11.358 0 01.741-1.53 4.667 4.667 0 013.974-2.48 5.092 5.092 0 012.49.88 11.978 11.978 0 014.5 5.74 28.522 28.522 0 011.642 7.24c.45 3.68.603 7.63-1.23 10.82z" transform="translate(-228 -1429)" fill-rule="evenodd" fill="#fff"/><path id="Rectangle-6" data-name="Rectangle" class="cls-5" d="M1 1h118v9H1z"/><path id="Rectangle-7" data-name="Rectangle" fill="#e0e0e0" d="M64 28h45v3H64z"/><path id="Rectangle-8" data-name="Rectangle" fill="#f5f5f5" d="M64 41h45v3H64z"/><path id="Rectangle-9" data-name="Rectangle" class="cls-1" d="M65 34h26v3H65z"/><path id="Rectangle-10" data-name="Rectangle" fill="#69f0ae" opacity=".2" d="M64 46h18v3H64z"/><path id="Rectangle-11" data-name="Rectangle" fill="#69f0ae" d="M86 46h18v3H86z"/></svg>