<svg xmlns="http://www.w3.org/2000/svg" xmlns:xlink="http://www.w3.org/1999/xlink" width="177.63" height="191.63"><defs><linearGradient id="linear-gradient" x1="1339.065" y1="1579.81" x2="1339.065" y2="1410.03" gradientUnits="userSpaceOnUse"><stop offset="NaN" stop-color="gray"/><stop offset="NaN" stop-color="gray" stop-opacity=".251"/><stop offset="Infinity" stop-color="#NaNNaNNaN" stop-opacity=".102"/></linearGradient><linearGradient id="linear-gradient-2" x1="34.22" y1="87.59" x2="34.22" y2="41.94" xlink:href="#linear-gradient"/><linearGradient id="linear-gradient-3" x1="33.72" y1="74.56" x2="33.72" y2="45.78" xlink:href="#linear-gradient"/><linearGradient id="linear-gradient-4" x1="33.72" y1="132.69" x2="33.72" y2="103.91" xlink:href="#linear-gradient"/><linearGradient id="linear-gradient-5" x1="1354.509" y1="1592.88" x2="1392.591" y2="1401.25" xlink:href="#linear-gradient"/><linearGradient id="linear-gradient-6" x1="1365.19" y1="1533.75" x2="1376.84" y2="1475.13" xlink:href="#linear-gradient"/><linearGradient id="linear-gradient-7" x1="129.25" y1="187.75" x2="129.25" y2="146.75" xlink:href="#linear-gradient"/><linearGradient id="linear-gradient-8" x1="1404" y1="1550" x2="1404" y2="1522" xlink:href="#linear-gradient"/><linearGradient id="linear-gradient-9" x1="1403.5" y1="1577" x2="1403.5" y2="1561" xlink:href="#linear-gradient"/><style>.cls-1,.cls-2{fill:none;stroke:#2196f3;stroke-width:4px}.cls-1,.cls-11,.cls-14,.cls-15,.cls-16,.cls-2{fill-rule:evenodd}.cls-2{stroke-miterlimit:10}.cls-15,.cls-5{fill:#e0e0e0}.cls-16,.cls-26{fill:#6c63ff}.cls-16{opacity:.7}.cls-8{fill:#f5f5f5}.cls-10,.cls-14{fill:#fff}.cls-11{fill-opacity:0}</style></defs><path id="Path" class="cls-1" d="M1418.27 1511.85c.18-.54.34-1.09.5-1.64" transform="translate(-1275.25 -1401.25)"/><path id="Path-2" data-name="Path" class="cls-2" d="M1393.9 1434.58a70.356 70.356 0 1023.27 80.49" transform="translate(-1275.25 -1401.25)"/><path id="Path-3" data-name="Path" class="cls-1" d="M1396.56 1436.71c-.44-.37-.87-.73-1.32-1.09" transform="translate(-1275.25 -1401.25)"/><path id="Path-4" data-name="Path" class="cls-1" d="M1346.72 1450.4c-.57.06-1.14.14-1.71.22" transform="translate(-1275.25 -1401.25)"/><path id="Path-5" data-name="Path" class="cls-2" d="M1385.93 1509.13a39.308 39.308 0 00-.44-39.38 40.065 40.065 0 00-34.49-19.57h-1" transform="translate(-1275.25 -1401.25)"/><path id="Path-6" data-name="Path" class="cls-1" d="M1384.17 1511.95q.48-.69.93-1.41" transform="translate(-1275.25 -1401.25)"/><path id="Rectangle" d="M1275.24 1410.03h127.65v169.77h-127.65v-169.77z" transform="translate(-1275.25 -1401.25)" fill="url(#linear-gradient)" fill-rule="evenodd"/><path id="Rectangle-2" data-name="Rectangle" fill="#f2f2f2" d="M1.75 10.75h123v164h-123z"/><path id="Rectangle-3" data-name="Rectangle" class="cls-5" d="M11.75 17.75h43v2h-43z"/><path id="Rectangle-4" data-name="Rectangle" opacity=".7" fill="#6c63ff" d="M11.75 23.75h43v2h-43z"/><path id="Rectangle-5" data-name="Rectangle" class="cls-5" d="M58.75 17.75h43v2h-43z"/><path id="Rectangle-6" data-name="Rectangle" class="cls-5" d="M66.75 54.75h43v2h-43z"/><path id="Rectangle-7" data-name="Rectangle" class="cls-5" d="M66.75 58.75h43v2h-43z"/><path id="Rectangle-8" data-name="Rectangle" class="cls-5" d="M68.75 61.75h43v2h-43z"/><path id="Rectangle-9" data-name="Rectangle" class="cls-5" d="M66.75 113.75h43v2h-43z"/><path id="Rectangle-10" data-name="Rectangle" class="cls-5" d="M66.75 117.75h43v2h-43z"/><path id="Rectangle-11" data-name="Rectangle" class="cls-5" d="M68.75 120.75h43v2h-43z"/><path id="Rectangle-12" data-name="Rectangle" fill="url(#linear-gradient-2)" d="M11.94 41.94H56.5v45.65H11.94z"/><path id="Rectangle-13" data-name="Rectangle" class="cls-8" d="M12.75 42.75h44v43h-44z"/><path id="Rectangle-14" data-name="Rectangle" fill="url(#linear-gradient-3)" d="M12.91 45.78h41.62v28.78H12.91z"/><path id="_689f37f3-cc41-448d-b172-63ec123bc985" data-name="689f37f3-cc41-448d-b172-63ec123bc985" class="cls-10" d="M13.75 46.75h41v27h-41z"/><path id="_8cc91f6d-19b0-43cc-9c18-2faa83ac34ba" data-name="8cc91f6d-19b0-43cc-9c18-2faa83ac34ba" class="cls-11" d="M1327.14 1465.15h40.62v27.6h-40.62v-27.6z" transform="translate(-1275.25 -1401.25)"/><path id="Rectangle-15" data-name="Rectangle" class="cls-8" d="M12.75 101.75h44v43h-44z"/><path id="Rectangle-16" data-name="Rectangle" fill="url(#linear-gradient-4)" d="M12.91 103.91h41.62v28.78H12.91z"/><path id="b429ac3a-f8a8-4171-bcce-5b6c002c0714" class="cls-10" d="M13.75 104.75h41v27h-41z"/><path id="_5b44e697-61fe-43bd-9a58-5f3e41301748" data-name="5b44e697-61fe-43bd-9a58-5f3e41301748" class="cls-11" d="M1327.14 1524.01h40.62v26.88h-40.62v-26.88z" transform="translate(-1275.25 -1401.25)"/><path id="Rectangle-17" data-name="Rectangle" d="M1294.23 1568.18l33.44-166.93 125.21 24.69-33.44 166.93z" transform="translate(-1275.25 -1401.25)" fill="url(#linear-gradient-5)" fill-rule="evenodd"/><path id="Rectangle-18" data-name="Rectangle" class="cls-14" d="M1296.16 1565.02l32.16-160.67 120.92 23.85-32.17 160.67z" transform="translate(-1275.25 -1401.25)"/><path id="Rectangle-19" data-name="Rectangle" class="cls-15" d="M1335.63 1413.5l85.81 16.93-.26 1.29-85.81-16.93z" transform="translate(-1275.25 -1401.25)"/><path id="Rectangle-20" data-name="Rectangle" class="cls-15" d="M1311.21 1535.46l85.81 16.92-.26 1.29-85.81-16.92z" transform="translate(-1275.25 -1401.25)"/><path id="Rectangle-21" data-name="Rectangle" class="cls-15" d="M1309.72 1542.88l66.31 13.08-.25 1.29-66.31-13.08z" transform="translate(-1275.25 -1401.25)"/><path id="Rectangle-22" data-name="Rectangle" class="cls-16" d="M1308.24 1550.3l24.7 4.87-.25 1.29-24.71-4.87z" transform="translate(-1275.25 -1401.25)"/><path id="Rectangle-23" data-name="Rectangle" class="cls-16" d="M1334.14 1420.92l42.91 8.47-.26 1.29-42.9-8.47z" transform="translate(-1275.25 -1401.25)"/><path id="Rectangle-24" data-name="Rectangle" class="cls-15" d="M1332.66 1428.34l77.36 15.26-.26 1.29-77.36-15.26z" transform="translate(-1275.25 -1401.25)"/><path id="Rectangle-25" data-name="Rectangle" d="M1331.17 1435.76l18.86 3.72-.26 1.29-18.85-3.72z" transform="translate(-1275.25 -1401.25)" fill="#3ad29f" opacity=".7" fill-rule="evenodd"/><path id="Rectangle-26" data-name="Rectangle" class="cls-15" d="M1329.69 1443.18l85.81 16.93-.26 1.29-85.81-16.93z" transform="translate(-1275.25 -1401.25)"/><path id="Rectangle-27" data-name="Rectangle" d="M1328.19 1518.68l8.77-43.56 76.89 15.09-8.76 43.56z" transform="translate(-1275.25 -1401.25)" fill="url(#linear-gradient-6)" fill-rule="evenodd"/><path id="Rectangle-28" data-name="Rectangle" class="cls-14" d="M1337.69 1474.95l76.06 15-8.59 42.91-76.06-15z" transform="translate(-1275.25 -1401.25)"/><path id="Rectangle-29" data-name="Rectangle" class="cls-15" d="M1328.2 1450.6l85.81 16.93-.26 1.29-85.81-16.93z" transform="translate(-1275.25 -1401.25)"/><path id="Rectangle-30" data-name="Rectangle" d="M1344.49 1482.32l9.43 1.86-6.27 31.3-9.43-1.86z" transform="translate(-1275.25 -1401.25)" fill="#6c63ff" fill-rule="evenodd"/><path id="Rectangle-31" data-name="Rectangle" d="M1359.32 1495.98l9.43 1.86-4.2 20.97-9.42-1.86z" transform="translate(-1275.25 -1401.25)" fill="#3ad29f" fill-rule="evenodd"/><path id="Rectangle-32" data-name="Rectangle" d="M1374.29 1508.99l9.43 1.86-2.27 11.29-9.42-1.85z" transform="translate(-1275.25 -1401.25)" fill="#f55f44" fill-rule="evenodd"/><path id="Rectangle-33" data-name="Rectangle" d="M1393.52 1500.71l9.42 1.86-4.58 22.91-9.43-1.86z" transform="translate(-1275.25 -1401.25)" fill="#fdd835" fill-rule="evenodd"/><path id="Rectangle-34" data-name="Rectangle" fill="url(#linear-gradient-7)" d="M103.75 146.75h51v41h-51z"/><path id="Path-7" data-name="Path" d="M1389.15 1550H1385v-9.33a19 19 0 0138 0v9.33h-4.16v-9.33a14.842 14.842 0 00-29.68 0z" transform="translate(-1275.25 -1401.25)" fill="url(#linear-gradient-8)" fill-rule="evenodd"/><path id="Path-8" data-name="Path" d="M1389.94 1550H1386v-9a18 18 0 0136 0v9h-3.94v-9a14.06 14.06 0 00-28.12 0v9z" transform="translate(-1275.25 -1401.25)" fill="#f5f5f5" fill-rule="evenodd"/><path id="Rectangle-35" data-name="Rectangle" class="cls-26" d="M104.75 147.75h49v40h-49z"/><path id="Rectangle-36" data-name="Rectangle" class="cls-8" d="M104.75 147.75h49v40h-49z"/><path id="Rectangle-37" data-name="Rectangle" class="cls-26" d="M104.75 155.75h49v24h-49z"/><path id="Path-9" data-name="Path" d="M1407 1564.52a3.541 3.541 0 01-.95 2.42v7.5a2.55 2.55 0 11-5.1 0v-7.51a3.545 3.545 0 01-.45-4.23 3.5 3.5 0 016.5 1.82z" transform="translate(-1275.25 -1401.25)" fill="url(#linear-gradient-9)" fill-rule="evenodd"/><path id="Path-10" data-name="Path" d="M1406 1565.08a3.085 3.085 0 01-.82 2.11v6.57a2.181 2.181 0 11-4.36 0v-6.57a3.136 3.136 0 01-.39-3.7 2.972 2.972 0 013.38-1.38 3.088 3.088 0 012.19 2.97z" transform="translate(-1275.25 -1401.25)" opacity=".2" fill-rule="evenodd"/></svg>