<svg id="Icon_Illustratio_Security" data-name="Icon/Illustratio/Security" xmlns="http://www.w3.org/2000/svg" width="249" height="210"><defs><filter id="filter" filterUnits="userSpaceOnUse"><feFlood result="flood"/><feComposite result="composite" operator="in" in2="SourceGraphic"/><feBlend result="blend" in2="SourceGraphic"/></filter><style>.cls-10,.cls-8{filter:url(#filter)}.cls-3,.cls-4{fill:none;stroke:#2196f3;stroke-width:4px}.cls-13,.cls-16,.cls-18,.cls-3,.cls-4{fill-rule:evenodd}.cls-4{stroke-miterlimit:10}.cls-18,.cls-19,.cls-21,.cls-8{opacity:.5}.cls-13,.cls-9{fill:#e0e0e0}.cls-16,.cls-21{fill:#47e6b1}.cls-18{fill:#fdd835}.cls-19{fill:#f55f44}</style></defs><g id="Illustration_Icon" data-name="Illustration Icon"><g id="Bg_Circle" data-name="Bg Circle" opacity=".55"><g id="Group" filter="url(#filter)" opacity=".3"><path id="Path" class="cls-3" d="M1390.66 1398.93c-.48-.28-.97-.56-1.46-.84" transform="translate(-1219 -1387)"/><path id="Path-2" data-name="Path" class="cls-4" d="M1439.64 1516.57a106.911 106.911 0 003.22-26.19 105.464 105.464 0 00-49.34-89.75" transform="translate(-1219 -1387)"/><path id="Path-3" data-name="Path" class="cls-3" d="M1438.77 1519.86c.15-.54.31-1.1.45-1.65" transform="translate(-1219 -1387)"/></g><path id="Path-4" data-name="Path" d="M85 6c-39.63 14.35-68 52.81-68 98" opacity=".21" stroke-miterlimit="10" fill-rule="evenodd" fill="none" stroke="#2196f3" stroke-width="4"/><path id="Path-5" data-name="Path" d="M37 166a103.507 103.507 0 00133 29.26" opacity=".5" stroke-miterlimit="10" fill-rule="evenodd" fill="none" stroke="#2196f3" stroke-width="4"/><g id="Group-2" data-name="Group" opacity=".21" filter="url(#filter)"><path id="Path-6" data-name="Path" class="cls-3" d="M1406.27 1511.85c.18-.54.34-1.09.5-1.64" transform="translate(-1219 -1387)"/><path id="Path-7" data-name="Path" class="cls-4" d="M1381.9 1434.58a70.356 70.356 0 1023.27 80.49" transform="translate(-1219 -1387)"/><path id="Path-8" data-name="Path" class="cls-3" d="M1384.56 1436.71c-.44-.37-.87-.73-1.32-1.09" transform="translate(-1219 -1387)"/></g><g id="Group-3" data-name="Group" class="cls-8"><path id="Path-9" data-name="Path" class="cls-3" d="M1334.72 1450.4c-.57.06-1.14.14-1.71.22" transform="translate(-1219 -1387)"/><path id="Path-10" data-name="Path" class="cls-4" d="M1373.93 1509.13a39.308 39.308 0 00-.44-39.38 40.065 40.065 0 00-34.49-19.57h-1" transform="translate(-1219 -1387)"/><path id="Path-11" data-name="Path" class="cls-3" d="M1372.17 1511.95q.48-.69.93-1.41" transform="translate(-1219 -1387)"/></g></g><path id="Rectangle" class="cls-9" d="M56 32h43v2H56z"/><path id="Rectangle-2" data-name="Rectangle" class="cls-9" d="M103 32h43v2h-43z"/><path id="Rectangle-3" data-name="Rectangle" class="cls-9" d="M111 69h43v2h-43z"/><path id="Rectangle-4" data-name="Rectangle" class="cls-9" d="M111 73h43v2h-43z"/><path id="Rectangle-5" data-name="Rectangle" class="cls-9" d="M113 76h43v2h-43z"/><g id="Clipped" class="cls-10"><path id="_8cc91f6d-19b0-43cc-9c18-2faa83ac34ba" data-name="8cc91f6d-19b0-43cc-9c18-2faa83ac34ba" d="M1315.14 1465.15h40.62v27.6h-40.62v-27.6z" transform="translate(-1219 -1387)" fill-opacity="0" fill-rule="evenodd"/><g id="Mask_by_8cc91f6d-19b0-43cc-9c18-2faa83ac34ba" data-name="Mask by 8cc91f6d-19b0-43cc-9c18-2faa83ac34ba"><g id="Group-4" data-name="Group" class="cls-10"><circle id="Oval" cx="62.595" cy="63.86" r="2.965" opacity=".4" fill="#6c63ff"/></g></g></g><path id="Rectangle-6" data-name="Rectangle" class="cls-13" d="M1323.63 1413.5l85.81 16.93-.26 1.29-85.81-16.93z" transform="translate(-1219 -1387)"/><path id="Rectangle-7" data-name="Rectangle" class="cls-13" d="M1299.21 1535.46l85.81 16.92-.26 1.29-85.81-16.92z" transform="translate(-1219 -1387)"/><path id="Rectangle-8" data-name="Rectangle" class="cls-13" d="M1297.72 1542.88l66.31 13.08-.25 1.29-66.31-13.08z" transform="translate(-1219 -1387)"/><path id="Rectangle-9" data-name="Rectangle" d="M1322.14 1420.92l42.91 8.47-.26 1.29-42.9-8.47z" transform="translate(-1219 -1387)" opacity=".7" fill="#6c63ff" fill-rule="evenodd"/><path id="Rectangle-10" data-name="Rectangle" class="cls-13" d="M1320.66 1428.34l77.36 15.26-.26 1.29-77.36-15.26z" transform="translate(-1219 -1387)"/><path id="Rectangle-11" data-name="Rectangle" d="M1319.17 1435.76l18.86 3.72-.26 1.29-18.85-3.72z" transform="translate(-1219 -1387)" fill="#3ad29f" opacity=".7" fill-rule="evenodd"/><path id="Rectangle-12" data-name="Rectangle" class="cls-13" d="M1317.69 1443.18l85.81 16.93-.26 1.29-85.81-16.93z" transform="translate(-1219 -1387)"/><g id="Group-5" data-name="Group" class="cls-8"><path id="Rectangle-13" data-name="Rectangle" class="cls-16" d="M1254.06 1561.02h.87v4.95h-.87v-4.95z" transform="translate(-1219 -1387)"/><path id="Rectangle-14" data-name="Rectangle" class="cls-16" d="M1256.97 1563.06v.87h-4.95v-.87h4.95z" transform="translate(-1219 -1387)"/></g><path id="Path-12" data-name="Path" d="M1369.68 1389.04a1.091 1.091 0 01.11.06.542.542 0 01.17.63.554.554 0 01-.54.36.5.5 0 01-.12-.02 1.1 1.1 0 00-1.34.61 1.091 1.091 0 01-.06.11.546.546 0 01-.63.17.554.554 0 01-.36-.54.5.5 0 01.02-.12 1.1 1.1 0 00-.61-1.34 1.091 1.091 0 01-.11-.06.565.565 0 01-.18-.63.576.576 0 01.55-.36.5.5 0 01.12.02 1.1 1.1 0 001.34-.61 1.091 1.091 0 01.06-.11.565.565 0 01.63-.18.572.572 0 01.36.54.507.507 0 01-.02.13 1.1 1.1 0 00.61 1.34z" transform="translate(-1219 -1387)" fill="#4d8af0" opacity=".5" fill-rule="evenodd"/><path id="Path-13" data-name="Path" class="cls-18" d="M1258.79 1417.1a.542.542 0 01.17.63.554.554 0 01-.54.36.5.5 0 01-.12-.02 1.1 1.1 0 00-1.34.61 1.091 1.091 0 01-.06.11.546.546 0 01-.63.17.554.554 0 01-.36-.54.5.5 0 01.02-.12 1.1 1.1 0 00-.61-1.34 1.091 1.091 0 01-.11-.06.565.565 0 01-.18-.63.576.576 0 01.55-.36.5.5 0 01.12.02 1.1 1.1 0 001.34-.61 1.091 1.091 0 01.06-.11.565.565 0 01.63-.18.572.572 0 01.36.54.507.507 0 01-.02.13 1.1 1.1 0 00.61 1.34 1.091 1.091 0 01.11.06z" transform="translate(-1219 -1387)"/><path id="Path-14" data-name="Path" class="cls-18" d="M1249.68 1499.04a1.091 1.091 0 01.11.06.542.542 0 01.17.63.554.554 0 01-.54.36.5.5 0 01-.12-.02 1.1 1.1 0 00-1.34.61 1.091 1.091 0 01-.06.11.546.546 0 01-.63.17.554.554 0 01-.36-.54.5.5 0 01.02-.12 1.1 1.1 0 00-.61-1.34 1.091 1.091 0 01-.11-.06.565.565 0 01-.18-.63.576.576 0 01.55-.36.5.5 0 01.12.02 1.1 1.1 0 001.34-.61 1.091 1.091 0 01.06-.11.565.565 0 01.63-.18.572.572 0 01.36.54.507.507 0 01-.02.13 1.107 1.107 0 00.61 1.34z" transform="translate(-1219 -1387)"/><circle id="Oval-2" data-name="Oval" class="cls-19" cx="92" cy="7" r="2"/><circle id="Oval-3" data-name="Oval" class="cls-19" cx="2" cy="85" r="2"/><circle id="Oval-4" data-name="Oval" class="cls-19" cx="234" cy="32" r="2"/><circle id="Oval-5" data-name="Oval" cx="223" cy="91" r="2" fill="#4d8af0" opacity=".5"/><circle id="Oval-6" data-name="Oval" class="cls-21" cx="10" cy="38" r="2"/><circle id="Oval-7" data-name="Oval" class="cls-21" cx="231" cy="175" r="2"/><circle id="Oval-8" data-name="Oval" class="cls-21" cx="247" cy="116" r="2"/></g></svg>