<svg xmlns="http://www.w3.org/2000/svg" width="671" height="425"><defs><linearGradient id="a" x1="2.855%" x2="0%" y1="99.959%" y2="0%"><stop offset="0%" stop-color="#FFF"/><stop offset="100%" stop-color="#F6FAFE"/></linearGradient></defs><path fill-rule="evenodd" fill="url(#a)" d="M670.47 338.159c5.969-61.076-39.291-121.166-97.178-136.737-17.747-4.775-36.734-5.803-53.114-14.187-45.688-23.388-62.251-83.547-91.326-122.417C393.514 17.573 344.047-3.433 285.877.453c-50.616 3.385-103.633 25.05-134.99 66.64-22.892 30.366-24.903 71.326-51.364 99.766C53.308 216.541-18.185 269.044 4.249 346.667c8.056 27.872 24.196 52.045 38.392 76.956l.332.601h572.058c7.218 0 17.382 2.746 23.408-2.097 5.758-4.631 28.159-44.334 32.031-83.968"/></svg>