<svg id="flaticon1550302567-svg" xmlns="http://www.w3.org/2000/svg" width="412" height="376"><defs><style>.cls-1{fill:#fff1b5;fill-rule:evenodd}</style></defs><path id="Shape" class="cls-1" d="M2364.46 8164.02c-56.71-25.82-142.1 22.94-127.89 90.81 7.98 38.1 42.72 65.67 79.83 72.52 32.11 5.93 61.66-8.19 83.29-30.44-4.48 31.8-17.71 63.68-30.65 89.95-21.69 44.03-52.79 90.83-94.13 118.55-15.45 10.36-.96 35.55 14.62 25.1 90.91-60.95 225.06-298.13 74.93-366.49zm29.85 92.25c-18.27 31.55-48.53 50.13-85.01 39.54-31.18-9.05-54.23-43.4-39.91-74.24 27.2-58.53 105.38-37.57 125.11 14.29.4 6.47.51 12.95.54 19.43-.24.34-.51.6-.73.98z" transform="translate(-2235 -8157)"/><path id="Shape-2" data-name="Shape" class="cls-1" d="M2579.46 8164.02c-56.71-25.82-142.1 22.94-127.89 90.81 7.98 38.1 42.72 65.67 79.83 72.52 32.11 5.93 61.66-8.19 83.28-30.44-4.47 31.8-17.7 63.68-30.64 89.95-21.69 44.03-52.78 90.83-94.13 118.55-15.46 10.36-.96 35.55 14.62 25.1 90.91-60.95 225.06-298.13 74.93-366.49zm29.86 92.25c-18.27 31.55-48.54 50.13-85.02 39.54-31.17-9.05-54.23-43.4-39.9-74.24 25.99-55.95 98.53-39.25 122.12 7.62a108.193 108.193 0 013.15 26.6 5.925 5.925 0 00-.35.48z" transform="translate(-2235 -8157)"/></svg>