<svg id="Illustration_Icon" data-name="Illustration Icon" xmlns="http://www.w3.org/2000/svg" width="264" height="176.31"><defs><style>.cls-2,.cls-3,.cls-4,.cls-5,.cls-8{fill-rule:evenodd}.cls-2,.cls-3{fill:none;stroke:#cfd8dc;stroke-width:2px}.cls-3{stroke-miterlimit:10}.cls-4,.cls-6{fill:#69f0ae}.cls-4,.cls-5,.cls-6,.cls-8{opacity:.3}.cls-5{fill:#4d8af0}.cls-8{fill:#ff5252}</style></defs><path id="Path" d="M764.059 1546.64c2.618-5.66-1.059-6-1.059-6" transform="translate(-713 -1405.66)" fill-rule="evenodd" fill="#fff"/><path id="Path-2" data-name="Path" class="cls-2" d="M758 1519.64v-2" transform="translate(-713 -1405.66)"/><path id="Path-3" data-name="Path" class="cls-3" d="M758 1514.64v-84" transform="translate(-713 -1405.66)"/><path id="Path-4" data-name="Path" class="cls-2" d="M758 1429.64v-2h2" transform="translate(-713 -1405.66)"/><path id="Path-5" data-name="Path" class="cls-3" d="M763 1428.64h59" transform="translate(-713 -1405.66)"/><path id="Path-6" data-name="Path" class="cls-2" d="M823 1428.64h2" transform="translate(-713 -1405.66)"/><path id="Path-7" data-name="Path" class="cls-2" d="M878 1428.64h2" transform="translate(-713 -1405.66)"/><path id="Path-8" data-name="Path" class="cls-3" d="M883 1428.64h65" transform="translate(-713 -1405.66)"/><path id="Path-9" data-name="Path" class="cls-2" d="M950 1427.64h2v2" transform="translate(-713 -1405.66)"/><path id="Path-10" data-name="Path" class="cls-3" d="M952 1430.64v31" transform="translate(-713 -1405.66)"/><path id="Path-11" data-name="Path" class="cls-2" d="M952 1463.64v2" transform="translate(-713 -1405.66)"/><path id="Rectangle" class="cls-4" d="M714.275 1541.16l2.226 1.29-1.285 2.22-2.227-1.28z" transform="translate(-713 -1405.66)"/><path id="Rectangle-2" data-name="Rectangle" class="cls-4" d="M891.859 1414.8l2.227 1.28-1.286 2.23-2.226-1.29z" transform="translate(-713 -1405.66)"/><path id="Rectangle-3" data-name="Rectangle" class="cls-5" d="M769.659 1578.47l2.227 1.28-1.286 2.23-2.226-1.29z" transform="translate(-713 -1405.66)"/><path id="Rectangle-4" data-name="Rectangle" class="cls-5" d="M914.216 1454.13l2.226 1.28-1.285 2.23-2.227-1.29z" transform="translate(-713 -1405.66)"/><circle id="Oval" class="cls-6" cx="211.5" cy="167.5" r="1.5"/><circle id="Oval-2" data-name="Oval" class="cls-6" cx="66.5" cy="64.5" r="1.5"/><circle id="Oval-3" data-name="Oval" cx="221.5" cy="134.5" r="1.5" fill="#ff5252" opacity=".3"/><path id="Path-12" data-name="Path" class="cls-8" d="M975.979 1414.98a.507.507 0 00-.958 0 .529.529 0 01-.5.38.522.522 0 00-.492.37.546.546 0 00.188.6.563.563 0 01.189.61.549.549 0 00.187.6.493.493 0 00.608 0 .49.49 0 01.606 0 .491.491 0 00.607 0 .55.55 0 00.188-.6.563.563 0 01.189-.61.544.544 0 00.187-.6.52.52 0 00-.492-.37.527.527 0 01-.5-.38z" transform="translate(-713 -1405.66)"/><path id="Path-13" data-name="Path" class="cls-8" d="M780.979 1533.98a.507.507 0 00-.958 0 .528.528 0 01-.5.38.522.522 0 00-.492.37.546.546 0 00.188.6.563.563 0 01.189.61.549.549 0 00.187.6.493.493 0 00.608 0 .49.49 0 01.606 0 .491.491 0 00.607 0 .548.548 0 00.188-.6.562.562 0 01.189-.61.544.544 0 00.187-.6.52.52 0 00-.492-.37.527.527 0 01-.5-.38z" transform="translate(-713 -1405.66)"/><path id="Path-14" data-name="Path" class="cls-8" d="M747.5 1422.64a.524.524 0 00-.479.34.528.528 0 01-.5.38.522.522 0 00-.492.37.546.546 0 00.188.6.563.563 0 01.189.61.549.549 0 00.187.6.493.493 0 00.608 0 .49.49 0 01.606 0 .491.491 0 00.607 0 .548.548 0 00.188-.6.563.563 0 01.189-.61.544.544 0 00.187-.6.52.52 0 00-.492-.37.527.527 0 01-.5-.38.524.524 0 00-.486-.34z" transform="translate(-713 -1405.66)"/><path id="Path-15" data-name="Path" class="cls-5" d="M822.5 1405.64a.524.524 0 00-.479.34.528.528 0 01-.5.38.522.522 0 00-.492.37.546.546 0 00.188.6.563.563 0 01.189.61.549.549 0 00.187.6.493.493 0 00.608 0 .49.49 0 01.606 0 .491.491 0 00.607 0 .548.548 0 00.188-.6.563.563 0 01.189-.61.544.544 0 00.187-.6.52.52 0 00-.492-.37.527.527 0 01-.5-.38.524.524 0 00-.486-.34z" transform="translate(-713 -1405.66)"/><path id="Path-16" data-name="Path" class="cls-5" d="M963.5 1477.64a.524.524 0 00-.479.34.528.528 0 01-.5.38.522.522 0 00-.492.37.546.546 0 00.188.6.563.563 0 01.189.61.549.549 0 00.187.6.493.493 0 00.608 0 .49.49 0 01.606 0 .491.491 0 00.607 0 .548.548 0 00.188-.6.563.563 0 01.189-.61.544.544 0 00.187-.6.52.52 0 00-.492-.37.527.527 0 01-.5-.38.524.524 0 00-.486-.34z" transform="translate(-713 -1405.66)"/></svg>