<svg xmlns="http://www.w3.org/2000/svg" xmlns:xlink="http://www.w3.org/1999/xlink" width="112.406" height="148.75"><defs><linearGradient id="linear-gradient" x1="848.969" y1="1608.5" x2="848.969" y2="1459.75" gradientUnits="userSpaceOnUse"><stop offset="NaN" stop-color="gray"/><stop offset="NaN" stop-color="gray" stop-opacity=".251"/><stop offset="Infinity" stop-color="#NaNNaNNaN" stop-opacity=".102"/></linearGradient><linearGradient id="linear-gradient-2" x1="894.969" y1="1478.5" x2="894.969" y2="1461.78" xlink:href="#linear-gradient"/><linearGradient id="linear-gradient-3" x1="813.985" y1="1505.5" x2="813.985" y2="1487.78" xlink:href="#linear-gradient"/><linearGradient id="linear-gradient-4" x1="813.985" y1="1540.5" x2="813.985" y2="1522.78" xlink:href="#linear-gradient"/><linearGradient id="linear-gradient-5" x1="813.985" y1="1574.5" x2="813.985" y2="1556.78" xlink:href="#linear-gradient"/><style>.cls-10{fill-rule:evenodd;fill:#fff}.cls-8{fill:#e0e0e0}</style></defs><path id="Path" d="M904.85 1608.51H793.106v-148.75h94.009l17.735 18.22v130.53z" transform="translate(-793.094 -1459.75)" fill="url(#linear-gradient)" fill-rule="evenodd"/><path id="Path-2" data-name="Path" d="M111.906 146.89h-110V.89h93.065l16.935 16.51v129.49h0z" stroke="#f8f8f8" stroke-width="1" fill="#fff" fill-rule="evenodd"/><path id="Path-3" data-name="Path" d="M886.1 1478.51v-16.74h1.46l16.286 16.74H886.1z" transform="translate(-793.094 -1459.75)" fill="url(#linear-gradient-2)" fill-rule="evenodd"/><path id="Path-4" data-name="Path" d="M887 1477.64v-17l17 17h-17z" transform="translate(-793.094 -1459.75)" fill="#fafafa" fill-rule="evenodd"/><path id="Oval" d="M805.11 1496.64a8.87 8.87 0 118.869 8.87 8.869 8.869 0 01-8.869-8.87z" transform="translate(-793.094 -1459.75)" fill="url(#linear-gradient-3)" fill-rule="evenodd"/><circle id="Oval-2" data-name="Oval" cx="20.906" cy="36.91" r="8" fill="#69f0ae"/><path id="Oval-3" data-name="Oval" d="M805.11 1531.64a8.87 8.87 0 118.869 8.87 8.869 8.869 0 01-8.869-8.87z" transform="translate(-793.094 -1459.75)" fill="url(#linear-gradient-4)" fill-rule="evenodd"/><circle id="Oval-4" data-name="Oval" class="cls-8" cx="20.906" cy="71.91" r="8"/><path id="Oval-5" data-name="Oval" d="M805.11 1565.64a8.87 8.87 0 118.869 8.87 8.869 8.869 0 01-8.869-8.87z" transform="translate(-793.094 -1459.75)" fill="url(#linear-gradient-5)" fill-rule="evenodd"/><circle id="Oval-6" data-name="Oval" class="cls-8" cx="20.906" cy="105.91" r="8"/><path id="Rectangle" class="cls-8" d="M39.906 33.91h21v2h-21z"/><path id="Rectangle-2" data-name="Rectangle" class="cls-8" d="M39.906 35.91h36v2h-36z"/><path id="Rectangle-3" data-name="Rectangle" class="cls-8" d="M40.906 37.91h33v2h-33z"/><path id="Rectangle-4" data-name="Rectangle" class="cls-8" d="M39.906 67.91h21v2h-21z"/><path id="Rectangle-5" data-name="Rectangle" class="cls-8" d="M39.906 70.91h36v2h-36z"/><path id="Rectangle-6" data-name="Rectangle" class="cls-8" d="M40.906 72.91h33v2h-33z"/><path id="Rectangle-7" data-name="Rectangle" class="cls-8" d="M39.906 102.91h21v2h-21z"/><path id="Rectangle-8" data-name="Rectangle" class="cls-8" d="M39.906 105.91h36v2h-36z"/><path id="Rectangle-9" data-name="Rectangle" class="cls-8" d="M40.906 107.91h33v2h-33z"/><path id="Path-5" data-name="Path" class="cls-10" d="M811.125 1496.84l2.7 2.52 3.825-5.72 1.35 1.15-5.175 6.85-3.825-4.34 1.125-.46z" transform="translate(-793.094 -1459.75)"/><path id="Path-6" data-name="Path" class="cls-10" d="M811.125 1530.84l2.7 2.52 3.825-5.72 1.35 1.15-5.175 6.85-3.825-4.34 1.125-.46z" transform="translate(-793.094 -1459.75)"/><path id="Path-7" data-name="Path" class="cls-10" d="M811.125 1564.84l2.7 2.52 3.825-5.72 1.35 1.15-5.175 6.85-3.825-4.34 1.125-.46z" transform="translate(-793.094 -1459.75)"/></svg>