<svg xmlns="http://www.w3.org/2000/svg" width="36.75" height="39"><defs><linearGradient id="a" x1="758.594" y1="1567.53" x2="758.594" y2="1528.66" gradientUnits="userSpaceOnUse"><stop offset="NaN" stop-color="gray"/><stop offset="NaN" stop-color="gray" stop-opacity=".251"/><stop offset="Infinity" stop-color="#NaNNaNNaN" stop-opacity=".102"/></linearGradient></defs><path d="M758.6 1528.64a18.364 18.364 0 0118.376 18.38v2.12a18.364 18.364 0 01-18.376 18.38 18.364 18.364 0 01-18.375-18.38v-2.12a18.364 18.364 0 0118.375-18.38z" transform="translate(-740.219 -1528.66)" fill="url(#a)" fill-rule="evenodd"/><path data-name="Rectangle" d="M18.281.98a16.488 16.488 0 0116.5 16.5v4a16.482 16.482 0 01-16.5 16.5 16.481 16.481 0 01-16.5-16.5v-4a16.487 16.487 0 0116.5-16.5z" fill="#6c63ff" fill-rule="evenodd"/><path d="M24.79 17.98c.734-.05.426-1.27.713-1.96a4.853 4.853 0 00.239-2.23c-.058-.75-1.2-.84-1.673-1.43.208-.63.309-1.68-.64-1.23a3.518 3.518 0 001.427-2.33 10.526 10.526 0 00.025-2.82 7.431 7.431 0 01-4.779 3.31 30.549 30.549 0 01-3.581.28 5.756 5.756 0 00-3.343 1.17 4.339 4.339 0 00-1.386 2.92 6.292 6.292 0 00.668 3.21" stroke="#fff" fill="#fff" fill-rule="evenodd"/><path data-name="Path" d="M20.781 27.61a8.006 8.006 0 015.749 7.75v3.62h-15.5v-3.62a8.008 8.008 0 015.75-7.75v-1.32a8.277 8.277 0 01-5.936-9.06 7.968 7.968 0 0115.872 0 8.277 8.277 0 01-5.936 9.06v1.32z" fill="#fff" fill-rule="evenodd"/></svg>