<svg xmlns="http://www.w3.org/2000/svg" width="320" height="350"><defs><linearGradient id="b" gradientUnits="userSpaceOnUse" x1="273.671" y1="0" x2="-75.389" y2="0"><stop offset="0" stop-color="#CCDDF8"/><stop offset="1" stop-color="#FFF"/></linearGradient><clipPath id="a"><path clip-rule="evenodd" d="M0 185h295v1H0z"/></clipPath></defs><g clip-path="url(#a)"><path fill="none" stroke="url(#b)" stroke-width="2" stroke-linecap="round" stroke-linejoin="round" transform="translate(0 185)" d="M0 0h320v1H0V0z"/></g><defs><linearGradient id="d" gradientUnits="userSpaceOnUse" x1="197.165" y1="0" x2="0" y2="0"><stop offset="0" stop-color="#CCDDF8"/><stop offset="1" stop-color="#FFF"/></linearGradient><clipPath id="c"><path clip-rule="evenodd" d="M141 302h154v1H141z"/></clipPath></defs><g clip-path="url(#c)"><path fill="none" stroke="url(#d)" stroke-width="2" stroke-linecap="round" stroke-linejoin="round" transform="translate(141 302)" d="M0 0h170v1H0V0z"/></g><defs><linearGradient id="f" gradientUnits="userSpaceOnUse" x1="197.165" y1="0" x2="0" y2="0"><stop offset="0" stop-color="#CCDDF8"/><stop offset="1" stop-color="#FFF"/></linearGradient><clipPath id="e"><path clip-rule="evenodd" d="M141 64h154v1H141z"/></clipPath></defs><g clip-path="url(#e)"><path fill="none" stroke="url(#f)" stroke-width="2" stroke-linecap="round" stroke-linejoin="round" transform="translate(141 64)" d="M0 0h170v1H0V0z"/></g><defs><linearGradient id="h" gradientUnits="userSpaceOnUse" x1=".5" y1="0" x2=".5" y2="350"><stop offset="0" stop-color="#FFF"/><stop offset="1" stop-color="#D1E1F9"/></linearGradient><clipPath id="g"><path clip-rule="evenodd" d="M158 0h1v350h-1z"/></clipPath></defs><g clip-path="url(#g)"><path fill="none" stroke="url(#h)" stroke-width="2" stroke-linecap="round" stroke-linejoin="round" transform="translate(158)" d="M0 0h1v350H0V0z"/></g><defs><clipPath id="i"><path clip-rule="evenodd" d="M-1405-6869H295v9460h-1700z"/></clipPath></defs><g clip-path="url(#i)"><path fill="#FFF" d="M159 216c16.569 0 30-13.431 30-30 0-16.569-13.431-30-30-30-16.569 0-30 13.431-30 30 0 16.569 13.431 30 30 30z"/></g><defs><clipPath id="j"><path clip-rule="evenodd" d="M-1405-6869H295v9460h-1700z"/></clipPath></defs><g clip-path="url(#j)"><path fill="none" stroke="#D2E2F9" stroke-linecap="round" stroke-linejoin="round" stroke-opacity=".298" d="M159 216c16.569 0 30-13.431 30-30 0-16.569-13.431-30-30-30-16.569 0-30 13.431-30 30 0 16.569 13.431 30 30 30z"/></g><defs><clipPath id="k"><path clip-rule="evenodd" d="M-1405-6869H295v9460h-1700z"/></clipPath></defs><g clip-path="url(#k)"><path fill="#FFF" d="M158.5 203c9.665 0 17.5-7.835 17.5-17.5s-7.835-17.5-17.5-17.5-17.5 7.835-17.5 17.5 7.835 17.5 17.5 17.5z"/></g><defs><clipPath id="l"><path clip-rule="evenodd" d="M-1405-6869H295v9460h-1700z"/></clipPath></defs><g clip-path="url(#l)"><path fill="none" stroke="#D2E2F9" stroke-linecap="round" stroke-linejoin="round" stroke-opacity=".6" d="M158.5 203c9.665 0 17.5-7.835 17.5-17.5s-7.835-17.5-17.5-17.5-17.5 7.835-17.5 17.5 7.835 17.5 17.5 17.5z"/></g><defs><clipPath id="m"><path clip-rule="evenodd" d="M-1405-6869H295v9460h-1700z"/></clipPath></defs><g clip-path="url(#m)"><path fill="#FFF" d="M159.5 192a6.5 6.5 0 100-13 6.5 6.5 0 000 13z"/></g><defs><linearGradient id="o" gradientUnits="userSpaceOnUse" x1="6.5" y1="0" x2="6.5" y2="13"><stop offset="0" stop-color="#FF5B62"/><stop offset="1" stop-color="#FF8E92"/></linearGradient><clipPath id="n"><path clip-rule="evenodd" d="M-1405-6869H295v9460h-1700z"/></clipPath></defs><g clip-path="url(#n)"><path fill="none" stroke="url(#o)" stroke-width="4" stroke-linecap="round" stroke-linejoin="round" transform="translate(153 179)" d="M6.5 13a6.5 6.5 0 100-13 6.5 6.5 0 000 13z"/></g></svg>