<svg id="Icon_Illustration_Workflow" data-name="Icon/Illustration/Workflow" xmlns="http://www.w3.org/2000/svg" width="229" height="228"><defs><filter id="filter" filterUnits="userSpaceOnUse"><feFlood result="flood"/><feComposite result="composite" operator="in" in2="SourceGraphic"/><feBlend result="blend" in2="SourceGraphic"/></filter><style>.cls-3,.cls-4{fill:none;stroke:#2196f3;stroke-width:4px}.cls-10,.cls-13,.cls-3,.cls-4,.cls-9{fill-rule:evenodd}.cls-4{stroke-miterlimit:10}.cls-10,.cls-13,.cls-9{opacity:.5}.cls-9{fill:#4d8af0}.cls-10{fill:#fdd835}.cls-13{fill:#47e6b1}</style></defs><g id="Illustration_Icon" data-name="Illustration Icon"><g id="Bg_Circle" data-name="Bg Circle" opacity=".4"><g id="Group" filter="url(#filter)" opacity=".3"><path id="Path" class="cls-3" d="M401.516 1428.73q-.649-.39-1.305-.75" transform="translate(-248 -1393)"/><path id="Path-2" data-name="Path" class="cls-4" d="M445.018 1534.4a97.6 97.6 0 002.858-23.52c0-34.16-17.548-64.07-43.821-80.62" transform="translate(-248 -1393)"/><path id="Path-3" data-name="Path" class="cls-3" d="M444.24 1537.36c.139-.49.274-.99.4-1.48" transform="translate(-248 -1393)"/></g><path id="Path-4" data-name="Path" d="M76.667 30A93.458 93.458 0 0015 118.06" opacity=".21" stroke-miterlimit="10" fill-rule="evenodd" fill="none" stroke="#2196f3" stroke-width="4"/><path id="Path-5" data-name="Path" d="M33.6 174.82a92.549 92.549 0 00118.439 25.9" opacity=".5" stroke-miterlimit="10" fill-rule="evenodd" fill="none" stroke="#2196f3" stroke-width="4"/><g id="Group-2" data-name="Group" opacity=".21" filter="url(#filter)"><path id="Path-6" data-name="Path" class="cls-3" d="M415.05 1529.69q.231-.735.445-1.47" transform="translate(-248 -1393)"/><path id="Path-7" data-name="Path" class="cls-4" d="M393.264 1460.52a63 63 0 1020.8 72.05" transform="translate(-248 -1393)"/><path id="Path-8" data-name="Path" class="cls-3" d="M395.642 1462.42c-.388-.33-.781-.65-1.177-.97" transform="translate(-248 -1393)"/></g><g id="Group-3" data-name="Group" opacity=".5" filter="url(#filter)"><path id="Path-9" data-name="Path" class="cls-3" d="M351.673 1474.25c-.517.05-1.034.11-1.551.19" transform="translate(-248 -1393)"/><path id="Path-10" data-name="Path" class="cls-4" d="M387.17 1527.07a35.187 35.187 0 00-.4-35.43 36.329 36.329 0 00-31.225-17.6h-.905" transform="translate(-248 -1393)"/><path id="Path-11" data-name="Path" class="cls-3" d="M385.574 1529.61c.29-.41.57-.84.841-1.27" transform="translate(-248 -1393)"/></g></g><path id="Path-12" data-name="Path" class="cls-9" d="M455.177 1417.02a.722.722 0 01.133.08.681.681 0 01-.449 1.21l-.151-.03a1.35 1.35 0 00-1.634.75.623.623 0 01-.075.14.692.692 0 01-.764.21.68.68 0 01-.441-.66.613.613 0 01.03-.15 1.371 1.371 0 00-.752-1.65.649.649 0 01-.133-.07.681.681 0 01.449-1.21.4.4 0 01.151.03 1.346 1.346 0 001.634-.76.868.868 0 01.075-.13.677.677 0 011.2.45.665.665 0 01-.03.15 1.355 1.355 0 00.753 1.64z" transform="translate(-248 -1393)"/><path id="Path-13" data-name="Path" class="cls-10" d="M268.212 1412.21a.682.682 0 01-.449 1.21l-.15-.03a1.341 1.341 0 00-1.635.75.552.552 0 01-.075.13.661.661 0 01-.764.21.67.67 0 01-.44-.66.665.665 0 01.03-.15 1.359 1.359 0 00-.753-1.64.641.641 0 01-.132-.07.691.691 0 01-.21-.77.668.668 0 01.658-.44.4.4 0 01.151.03 1.356 1.356 0 001.634-.76.522.522 0 01.076-.13.677.677 0 011.2.45.665.665 0 01-.03.15 1.354 1.354 0 00.752 1.64.691.691 0 01.137.08z" transform="translate(-248 -1393)"/><path id="Path-14" data-name="Path" class="cls-10" d="M348.96 1525.64a.683.683 0 01.132.08.682.682 0 01-.448 1.21l-.151-.03a1.34 1.34 0 00-1.634.75.876.876 0 01-.076.14.677.677 0 01-1.2-.46.665.665 0 01.03-.15 1.358 1.358 0 00-.752-1.64.649.649 0 01-.133-.07.692.692 0 01-.209-.77.682.682 0 01.658-.44.39.39 0 01.15.03 1.357 1.357 0 001.635-.76.552.552 0 01.075-.13.678.678 0 011.2.45.728.728 0 01-.031.15 1.355 1.355 0 00.753 1.64z" transform="translate(-248 -1393)"/><circle id="Oval" cx="16.078" cy="143.36" r="2.422" opacity=".49" fill="#f55f44"/><circle id="Oval-2" data-name="Oval" cx="226.563" cy="116.94" r="2.438" fill="#f55f44" opacity=".5"/><path id="Oval-3" data-name="Oval" class="cls-9" d="M320.111 1618.55a2.436 2.436 0 112.436 2.45 2.436 2.436 0 01-2.436-2.45z" transform="translate(-248 -1393)"/><path id="Oval-4" data-name="Oval" class="cls-13" d="M248 1562.78a2.436 2.436 0 112.436 2.44 2.445 2.445 0 01-2.436-2.44z" transform="translate(-248 -1393)"/><path id="Oval-5" data-name="Oval" class="cls-13" d="M348.37 1395.45a2.437 2.437 0 112.436 2.44 2.439 2.439 0 01-2.436-2.44z" transform="translate(-248 -1393)"/><circle id="Oval-6" data-name="Oval" cx="178.813" cy="220.655" r="2.438" fill="#47e6b1" opacity=".5"/></g></svg>