<svg xmlns="http://www.w3.org/2000/svg" width="430" height="431"><defs><linearGradient id="b" gradientUnits="userSpaceOnUse" x1="189.051" y1="431" x2="109.012" y2="24.281"><stop offset="0" stop-color="#EBF2FD" stop-opacity=".502"/><stop offset="1" stop-color="#D2E2F9" stop-opacity=".502"/></linearGradient><clipPath id="a"><path clip-rule="evenodd" d="M-458-7920h1700V2110H-458z"/></clipPath></defs><g clip-path="url(#a)"><path fill="none" stroke="url(#b)" stroke-opacity=".502" d="M215 431c118.741 0 215-96.483 215-215.5S333.741 0 215 0 0 96.483 0 215.5 96.259 431 215 431z"/></g><defs><linearGradient id="d" gradientUnits="userSpaceOnUse" x1="45.891" y1="14.109" x2="110" y2="220"><stop offset="0" stop-color="#EBF2FD" stop-opacity=".702"/><stop offset="1" stop-color="#D2E2F9" stop-opacity=".702"/></linearGradient><clipPath id="c"><path clip-rule="evenodd" d="M-458-7920h1700V2110H-458z"/></clipPath></defs><g clip-path="url(#c)"><path fill="none" stroke="url(#d)" stroke-opacity=".702" transform="translate(106 100)" d="M110 220c60.751 0 110-49.249 110-110S170.751 0 110 0 0 49.249 0 110s49.249 110 110 110z"/></g><defs><clipPath id="e"><path clip-rule="evenodd" d="M-458-7920h1700V2110H-458z"/></clipPath></defs><g clip-path="url(#e)"><path fill="#FFF" d="M214 251c22.091 0 40-17.909 40-40s-17.909-40-40-40-40 17.909-40 40 17.909 40 40 40z"/></g><defs><linearGradient id="g" gradientUnits="userSpaceOnUse" x1="40" y1="0" x2="40" y2="80"><stop offset="0" stop-color="#00F2EF"/><stop offset="1" stop-color="#B7F8FF"/></linearGradient><clipPath id="f"><path clip-rule="evenodd" d="M-458-7920h1700V2110H-458z"/></clipPath></defs><g clip-path="url(#f)"><path fill="none" stroke="url(#g)" stroke-width="10" transform="translate(174 171)" d="M40 80c22.091 0 40-17.909 40-40S62.091 0 40 0 0 17.909 0 40s17.909 40 40 40z"/></g></svg>