<svg xmlns="http://www.w3.org/2000/svg" viewBox="0 0 512 512"><g fill="#d1d6de"><path d="M234.398 182.544l-99.004 99.004c-2.619 2.619-7.101.842-7.214-2.86l-.808-26.417-26.418-.808c-3.702-.113-5.479-4.595-2.86-7.214l99.004-99.004 37.3 37.299z"/><path d="M230.973 171.62H90.96c-3.704 0-5.617-4.425-3.079-7.123l18.109-19.251-18.109-19.251c-2.538-2.698-.625-7.123 3.079-7.123h140.013v52.748z"/></g><g fill="#f9c295"><path d="M143.196 204.949h23.006v-45.798h-23.006c-12.647 0-22.899 10.252-22.899 22.899s10.252 22.899 22.899 22.899zm225.607 0h-23.006v-45.798h23.006c12.647 0 22.899 10.252 22.899 22.899s-10.252 22.899-22.899 22.899z"/><path d="M255.999 43.869c-53.983 0-97.746 43.763-97.746 97.746v47.125c0 53.984 43.763 97.746 97.746 97.746s97.746-43.763 97.746-97.746v-47.125c.001-53.983-43.762-97.746-97.746-97.746z"/></g><path d="M255.999 43.869c-4.226 0-8.389.269-12.474.789 48.093 6.126 85.272 47.2 85.272 96.957v47.125c0 49.758-37.179 90.832-85.272 96.958a98.56 98.56 0 0012.474.789c53.983 0 97.746-43.762 97.746-97.746v-47.125c.001-53.984-43.762-97.747-97.746-97.747z" fill="#e59f6a"/><path d="M406.659 0H231.287c-44.406 0-80.533 36.127-80.533 80.533v11.964a7.5 7.5 0 007.5 7.5h195.492c33.312 0 60.413-27.101 60.413-60.413V7.5a7.5 7.5 0 00-7.5-7.5z" fill="#fcab29"/><path d="M406.659 0h-26.457a7.5 7.5 0 017.5 7.5v32.084c0 33.312-27.102 60.413-60.413 60.413h26.457c33.312 0 60.413-27.101 60.413-60.413V7.5a7.5 7.5 0 00-7.5-7.5z" fill="#dd8d19"/><path d="M291.79 315.317h-71.581c-12.963 0-25.279.77-36.388 5.751-31.031 13.913-52.647 45.075-52.647 81.284V512h249.652V402.352c0-36.319-21.745-67.558-52.927-81.409-11.036-4.903-23.254-5.626-36.109-5.626z" fill="#656d88"/><path d="M324.628 381.693l-28.28 77.7 26.705 9.72 28.28-77.7c2.684-7.374-1.118-15.528-8.493-18.213-7.374-2.684-15.528 1.118-18.212 8.493z" fill="#fcab29"/><path d="M342.841 373.2c-7.374-2.684-15.528 1.118-18.212 8.493l-5.204 14.298 26.705 9.72 5.204-14.298c2.683-7.375-1.119-15.529-8.493-18.213z" fill="#ec86c8"/><path d="M308.467 509.053h31.782v-59.179h-31.782c-14.448 0-26.161 11.713-26.161 26.161v6.857c0 14.448 11.713 26.161 26.161 26.161zm-104.935 0H171.75v-59.179h31.782c14.448 0 26.161 11.713 26.161 26.161v6.857c0 14.448-11.713 26.161-26.161 26.161z" fill="#f9c295"/><path d="M441.309 479.463c0-105.349-72.529-144.121-113.419-158.498 31.18 13.852 52.936 45.069 52.936 81.386v44.575h-37.509a5.222 5.222 0 00-5.223 5.223v54.627a5.222 5.222 0 005.223 5.223h65.456c17.969.001 32.536-14.566 32.536-32.536zm-310.134-32.536v-44.575c0-36.317 21.756-67.535 52.936-81.386-40.891 14.377-113.42 53.149-113.42 158.497 0 17.969 14.567 32.537 32.537 32.537h70.678v-65.073h-42.731z" fill="#444966"/><path d="M255.999 463.932l71.889-142.966a88.68 88.68 0 00-36.099-7.649h-71.582a88.684 88.684 0 00-36.099 7.649l71.891 142.966z" fill="#ebeef2"/><path d="M244.455 342.41l-10.765 77.155 22.309 44.367 22.309-44.367-10.765-77.155c11.572-4.596 19.757-15.885 19.757-29.094h-62.603c.001 13.209 8.187 24.499 19.758 29.094z" fill="#ed5575"/><path d="M143.249 102.127v33.489c0 5.318 4.311 9.63 9.63 9.63H359.12c5.318 0 9.63-4.311 9.63-9.63v-33.489c0-5.318-4.311-9.63-9.63-9.63H152.879c-5.318 0-9.63 4.311-9.63 9.63z" fill="#ebeef2"/><path d="M359.12 92.497h-23.751c5.319 0 9.63 4.312 9.63 9.63v33.489c0 5.318-4.312 9.63-9.63 9.63h23.751c5.318 0 9.63-4.312 9.63-9.63v-33.489c0-5.318-4.312-9.63-9.63-9.63z" fill="#d1d6de"/><path d="M271.666 219.167h-15.667a7.5 7.5 0 01-7.5-7.5v-41.64c0-4.142 3.357-7.5 7.5-7.5s7.5 3.358 7.5 7.5v34.14h8.167c4.143 0 7.5 3.358 7.5 7.5s-3.357 7.5-7.5 7.5z" fill="#e59f6a"/></svg>