<svg xmlns="http://www.w3.org/2000/svg" viewBox="0 0 511.999 511.999"><path d="M332.734 57.898C322.202 26.696 307.882 4.365 307.279 3.43a7.498 7.498 0 00-7.302-3.362c-1.104.148-27.38 3.784-57.937 16.063-41.117 16.522-70.092 40.983-83.795 70.736-22.852 49.623-46.716 149.609-53.196 222.886a7.501 7.501 0 004.334 7.473l80.786 37.204a7.496 7.496 0 008.495-1.566c51.469-52.556 111.936-135.686 134.79-185.31 13.702-29.752 13.453-67.671-.72-109.656z" fill="#ebeef2"/><path d="M332.734 57.898C322.202 26.696 307.882 4.365 307.279 3.43a7.498 7.498 0 00-7.302-3.362c-.27.036-2.058.284-5.041.814 3.612 7.412 11.512 25.025 17.188 47.84 9.982 40.119 8.046 77.065-5.598 106.844-22.757 49.667-80.233 134.129-128.122 188.279-1.342 1.517-3.082 2.388-4.805 2.5a5.78 5.78 0 01-1.077-.041l17.646 8.126a7.496 7.496 0 008.495-1.566c51.469-52.556 111.936-135.686 134.79-185.31 13.703-29.752 13.454-67.671-.719-109.656z" fill="#d1d6de"/><path d="M299.977.068c-1.104.148-27.38 3.784-57.937 16.063-25.167 10.113-45.776 23.205-61.128 38.66l162.359 72.287c1.33-21.087-2.181-44.425-10.538-69.179-10.531-31.203-24.851-53.534-25.454-54.469a7.498 7.498 0 00-7.302-3.362z" fill="#5c9cee"/><path d="M294.936.882c3.612 7.412 11.512 25.025 17.188 47.84 5.885 23.654 7.624 46.203 5.266 66.832l25.882 11.523c2.514-39.82-15.238-91.495-35.993-123.647a7.498 7.498 0 00-7.474-3.338c-.565.078-2.26.326-4.869.79z" fill="#3580d3"/><circle cx="237.369" cy="145.61" r="28.974" fill="#8088a0"/><path d="M192.092 283.244a23.098 23.098 0 00-12.084-13.063 23.095 23.095 0 00-17.781-.691 23.098 23.098 0 00-13.063 12.084 7.587 7.587 0 00-.377 1.001l-22.808 76.758c-1.702 5.729 1.003 11.703 6.432 14.203a11.992 11.992 0 005.027 1.112c3.913 0 7.676-1.949 9.946-5.458l43.501-67.228c.194-.299.366-.613.516-.937a23.1 23.1 0 00.691-17.781z" fill="#ed5575"/><path d="M394.781 117.328c-11.661-3.81-24.106-2.853-35.043 2.697-10.938 5.55-19.062 15.027-22.872 26.686l-6.474 19.805c-7.866 24.068 5.315 50.049 29.384 57.916a45.748 45.748 0 0014.232 2.276c19.33 0 37.358-12.313 43.683-31.659l6.473-19.805c7.866-24.069-5.315-50.05-29.383-57.916z" fill="#f9c295"/><path d="M459.678 100.933a7.491 7.491 0 00-7.085-2.369l-29.079 5.85a2.216 2.216 0 01-1.125-.066l-28.414-9.287c-20.043-6.549-41.674 4.426-48.225 24.467l-11.117 34.017a7.5 7.5 0 004.799 9.459l22.67 7.409a7.508 7.508 0 005.724-.441 7.496 7.496 0 003.735-4.359l.396-1.21c1.579-4.833 6.795-7.48 11.631-5.901l13.749 4.494c22.902 7.484 47.623-5.058 55.109-27.959l8.756-26.791a7.507 7.507 0 00-1.524-7.313z" fill="#444966"/><path d="M348.317 222.774c-17.454-12.919-42.171-9.232-55.093 8.222l-54.413 73.486a7.496 7.496 0 002.147 10.881l54.826 33.143a7.494 7.494 0 009.907-1.956l50.852-68.678c5.059-6.846 7.732-14.941 7.732-23.411.001-12.444-5.964-24.29-15.958-31.687z" fill="#9fd479"/><g fill="#7db24f"><path d="M348.317 222.774a39.374 39.374 0 00-5.523-3.415c4.951 6.715 7.738 14.936 7.738 23.438 0 8.47-2.674 16.565-7.732 23.411l-50.852 68.678a7.495 7.495 0 01-9.907 1.956l-44.638-26.984c.022.18.042.361.077.541a7.5 7.5 0 003.478 4.966l54.826 33.143a7.494 7.494 0 009.907-1.956l50.852-68.678c5.059-6.846 7.732-14.941 7.732-23.411.001-12.446-5.964-24.292-15.958-31.689z"/><path d="M337.852 240.036a22.931 22.931 0 00-15.534-8.304L202.141 218.31l-.106-.011c-12.675-1.237-23.978 8.072-25.21 20.741-1.23 12.648 8.044 23.941 20.681 25.204l120.18 13.422.106.011a23.54 23.54 0 002.276.111c5.33 0 10.453-1.829 14.623-5.26a22.932 22.932 0 008.31-15.591 22.933 22.933 0 00-5.149-16.901z"/></g><path d="M132.454 494.88H57.926a7.5 7.5 0 010-15h74.528a7.5 7.5 0 010 15zm0-43.052H80.082a7.5 7.5 0 010-15h52.372a7.5 7.5 0 010 15zm0-43.053h-22.16a7.5 7.5 0 010-15h22.16a7.5 7.5 0 010 15z" fill="#dce0e5"/><path d="M222.012 222.805a7.498 7.498 0 00-5.083-2.843l-14.788-1.652-.106-.011c-12.661-1.224-23.977 8.072-25.209 20.74a22.931 22.931 0 005.149 16.901 22.931 22.931 0 0015.533 8.304l13.547 1.513a7.5 7.5 0 008.263-6.441l4.209-30.887a7.5 7.5 0 00-1.515-5.624z" fill="#f9c295"/><path d="M291.481 362.108a7.502 7.502 0 00-2.964-4.979l-51.26-37.947a7.498 7.498 0 00-11.073 2.495l-80.213 143.832a7.5 7.5 0 002.644 10.055l34.382 20.978a7.492 7.492 0 009.862-1.845l97.153-126.983a7.506 7.506 0 001.469-5.606z" fill="#2e344c"/><path d="M356.064 367.424l-107.345-64.897a7.501 7.501 0 00-9.907 1.955l-12.044 16.264a7.4 7.4 0 00-.641 1.033l-2.325 4.169c-9.489 17.015-3.938 38.362 12.638 48.6l69.118 42.682-20.639 73.934a7.5 7.5 0 005.116 9.214l38.662 11.319a7.5 7.5 0 009.327-5.168l30.271-107.688c3.52-12.017-1.509-24.936-12.231-31.417z" fill="#656d88"/></svg>