<svg width="567" height="334" fill="none" xmlns="http://www.w3.org/2000/svg"><path d="M291.156 156.912H246.52c-8.327 0-16.225.388-23.314 3.672C204.19 169.395 191 188.65 191 210.986v50.567a7.447 7.447 0 007.446 7.447h140.783a7.447 7.447 0 007.447-7.447v-50.567c0-22.294-13.139-41.517-32.096-50.351-7.117-3.317-15.054-3.723-23.424-3.723z" fill="#656D88"/><path d="M291.156 156.912h-11.258c11.521 0 22.118 3.008 30.509 10.47 11.433 10.168 18.771 25.92 18.771 43.604v50.567c0 4.112-2.959 7.447-6.609 7.447h16.661a7.447 7.447 0 007.446-7.447v-50.567c0-22.294-13.139-41.518-32.096-50.351-7.117-3.317-15.054-3.723-23.424-3.723z" fill="#444966"/><path d="M268.839 243.88l45.626-83.283a55.285 55.285 0 00-23.308-5.13H246.52a55.28 55.28 0 00-23.307 5.13l45.626 83.283z" fill="#EBEEF2"/><path d="M276.947 175.905c8.129-3.228 13.88-11.16 13.88-20.438H246.85c0 9.278 5.75 17.209 13.879 20.438l-7.264 39.912 15.373 28.063 15.374-28.062-7.265-39.913z" fill="#ED5575"/><path d="M268.674 133.777c-28.802 0-52.151-23.349-52.151-52.15V48.055C216.523 21.515 238.038 0 264.579 0h8.19c26.541 0 48.056 21.515 48.056 48.056v33.57c-.001 28.802-23.349 52.151-52.151 52.151z" fill="#FCD0AE"/><path d="M272.766.002h-8.19c-.299 0-.594.017-.892.022 21.42.477 38.641 17.977 38.641 39.511v51.341c0 22.193-16.852 40.449-38.457 42.673 1.582.145 3.182.229 4.803.229 28.802 0 52.15-23.349 52.15-52.15V48.057c.001-26.54-21.514-48.055-48.055-48.055z" fill="#E59F6A"/><path d="M272.768.002h-8.19c-26.295 0-47.644 21.123-48.037 47.323 8.894 9.89 22.182 18.23 32.193 20.826-2.606-5.212-8.023-17.68-5.212-29.412 8.718 11.724 48.984 31.052 77.302 38.063V48.058c0-26.541-21.515-48.056-48.056-48.056z" fill="#444966"/><path d="M272.766.002h-8.19c-.299 0-.594.017-.892.022 21.42.477 38.641 17.977 38.641 39.511v31.591c6.417 2.293 12.707 4.242 18.497 5.676V48.058c0-26.541-21.515-48.056-48.056-48.056zm270.931 164.021c12.87 0 23.303-10.433 23.303-23.303 0-12.869-10.433-23.302-23.303-23.302-12.87 0-23.302 10.433-23.302 23.302 0 12.87 10.432 23.303 23.302 23.303z" fill="#2E344C"/><path d="M496.866 175.722c-25.863 0-46.829-20.966-46.829-46.829V98.414c0-23.977 19.437-43.414 43.414-43.414h6.831c23.978 0 43.415 19.437 43.415 43.414v30.479c-.001 25.863-20.968 46.829-46.831 46.829z" fill="#FCD0AE"/><path d="M515.465 198.641h-37.197c-25.553 0-46.268 20.714-46.268 46.267v44.737a3.609 3.609 0 003.609 3.609h122.514a3.609 3.609 0 003.609-3.609v-44.737c0-25.552-20.714-46.267-46.267-46.267z" fill="#5C9CEE"/><path d="M543.696 98.417v30.618c-66.984-5.908-72.642-42.037-72.642-42.037v23.107h-21.019V98.416c0-23.979 19.435-43.414 43.414-43.414h6.831c23.979 0 43.416 19.436 43.416 43.415z" fill="#444966"/><path d="M525.08 199.649a46.43 46.43 0 00-9.615-1.006h-37.198a46.5 46.5 0 00-9.615 1.006c2.225 16.88 13.196 30.996 28.214 37.658 15.019-6.662 25.989-20.779 28.214-37.658z" fill="#EBEEF2"/><path d="M432.287 264.453c-17.235-62.889-16.853-67.216-4.75-125.912a68.754 68.754 0 001.654-15.012c0-37.848-30.682-68.529-68.529-68.529-37.847 0-68.529 30.682-68.529 68.529 0 5.157.574 10.18 1.654 15.012 12.104 58.695 12.486 63.023-4.75 125.912A74.68 74.68 0 00286 285.582c0 41.235 33.427 31.278 74.662 31.278 41.235 0 74.662 9.956 74.662-31.278a74.68 74.68 0 00-3.037-21.129z" fill="#FCAB29"/><path d="M432.288 264.454c-17.234-62.889-16.852-67.216-4.749-125.911a68.815 68.815 0 001.653-15.012c0-37.848-30.681-68.529-68.529-68.529-1.77 0-3.525.067-5.263.199 30.728 2.688 54.935 32.253 54.935 68.33 0 5.157-.498 10.18-1.436 15.012-10.509 58.696-10.84 63.022 4.124 125.911a85.222 85.222 0 012.638 21.129c0 24.88-10.57 31.12-26.817 32.159 27.265.94 46.482-.896 46.482-32.159 0-7.34-1.065-14.429-3.038-21.129z" fill="#DD8D19"/><path d="M382.07 225.652h-42.815c-8.185 0-15.938.47-22.866 3.769C298.42 237.976 286 256.302 286 277.53v48.505a7.143 7.143 0 007.143 7.142h135.038a7.142 7.142 0 007.143-7.142V277.53c0-21.373-12.591-39.805-30.759-48.284-6.834-3.189-14.457-3.594-22.495-3.594z" fill="#656D88"/><path d="M382.07 225.652h-10.799c11.151 0 21.4 2.974 29.483 10.249 10.841 9.758 17.786 24.78 17.786 41.629v48.505c0 3.945-2.838 7.143-6.339 7.143h15.982a7.143 7.143 0 007.142-7.143V277.53c0-21.373-12.591-39.805-30.759-48.284-6.835-3.189-14.458-3.594-22.496-3.594z" fill="#444966"/><path d="M410.526 158.914c-2.787 25.062-24.051 44.557-49.864 44.557-27.712 0-50.182-22.47-50.182-50.182v-32.658c0-12.137 4.65-23.192 12.268-31.473 11.437 26.411 41.221 57.683 87.778 69.756z" fill="#FCD0AE"/><path d="M391.877 152.73a33.772 33.772 0 01-.265 6.185c-2.106 23.353-17.224 41.864-36.212 44.282 1.73.179 3.484.275 5.261.275 25.813 0 47.077-19.495 49.865-44.557a148.097 148.097 0 01-18.649-6.185z" fill="#E59F6A"/><path d="M360.663 309.081l43.764-79.885a53.047 53.047 0 00-22.358-4.921h-42.814a53.046 53.046 0 00-22.357 4.921l43.765 79.885z" fill="#EBEEF2"/><path d="M368.44 243.88c7.797-3.097 13.313-10.704 13.313-19.605H339.57c0 8.9 5.516 16.508 13.313 19.605l-6.968 38.284 14.747 26.918 14.746-26.918-6.968-38.284zM83.731 205.893H49.032c-3.076 0-6.077-1.3-8.971-.688-19.532 4.129-34.19 21.466-34.19 42.227v41.733a3.366 3.366 0 003.367 3.366h114.287a3.366 3.366 0 003.367-3.366v-41.733c0-20.761-14.659-38.099-34.19-42.227-2.894-.612-5.895.688-8.97.688z" fill="#ED5575"/><path d="M125.294 146.079v-32.165C125.294 81.377 98.918 55 66.381 55 33.843 55 7.466 81.376 7.466 113.914v32.165c0 8.662-2.788 19.239-6.31 25.923-1.184 2.246.434 4.94 2.973 4.94H128.63c2.539 0 4.157-2.694 2.973-4.94-3.522-6.684-6.31-17.261-6.31-25.923z" fill="#444966"/><path d="M110.067 130.032v9.177c0 24.125-19.561 43.679-43.686 43.679s-43.686-19.554-43.686-43.679v-28.436c0-1.534.089-3.055.258-4.544h5.582a14.183 14.183 0 0113.3 9.265 22.284 22.284 0 008.153 10.548 22.266 22.266 0 0012.722 3.991h47.357v-.001z" fill="#FCD0AE"/><path d="M92.7 205.213a43.243 43.243 0 00-8.97-.94h-34.7c-3.076 0-6.076.328-8.97.94 2.076 15.745 12.31 28.914 26.32 35.129 14.01-6.215 24.244-19.384 26.32-35.129z" fill="#EBEEF2"/><path d="M182.537 204.643c-28.125 0-50.924-22.799-50.924-50.923v-33.143c0-26.073 21.137-47.21 47.21-47.21h7.428c26.073 0 47.21 21.136 47.21 47.21v33.143c-.001 28.124-22.8 50.923-50.924 50.923z" fill="#FCD0AE"/><path d="M202.76 229.568h-40.448c-27.786 0-50.312 22.526-50.312 50.312v48.648a3.925 3.925 0 003.925 3.925h133.224a3.925 3.925 0 003.924-3.925V279.88c0-27.786-22.526-50.312-50.313-50.312z" fill="#EBEEF2"/><path d="M188.986 229.568h-12.9l-12.926 54.599 19.375 20.39 19.376-20.39-12.925-54.599z" fill="#ED5575"/><path d="M131.613 120.579h79.719c22.673 0 41.053-18.38 41.053-41.053V63h-79.779c-22.64 0-40.993 18.353-40.993 40.992v16.587z" fill="#FCAB29"/></svg>