<svg xmlns="http://www.w3.org/2000/svg" viewBox="0 0 512 512"><path d="M300.135 16.87h-88.27c-14.268 0-25.835 11.567-25.835 25.835V95.47c0 13.784 10.796 25.045 24.394 25.793-4.493 9.514-13.166 16.381-23.302 18.675a33.904 33.904 0 0015.718 7.113c17.835 3.04 34.785-8.376 38.878-25.746h58.416c14.268 0 25.835-11.567 25.835-25.835V42.705c.001-14.268-11.566-25.835-25.834-25.835z" fill="#5c9cee"/><path d="M300.135 16.87h-21c14.268 0 25.835 11.567 25.835 25.835V95.47c0 14.268-11.567 25.835-25.835 25.835h21c14.268 0 25.835-11.567 25.835-25.835V42.705c0-14.268-11.567-25.835-25.835-25.835z" fill="#3580d3"/><path d="M211.865 188.712h88.27c14.268 0 25.835 11.567 25.835 25.835v52.765c0 13.784-10.797 25.045-24.394 25.793 4.493 9.514 13.166 16.381 23.302 18.675a33.904 33.904 0 01-15.718 7.113c-17.835 3.04-34.785-8.376-38.878-25.746h-58.416c-14.268 0-25.835-11.567-25.835-25.835v-52.765c-.001-14.269 11.566-25.835 25.834-25.835z" fill="#9fd479"/><path d="M357.251 173.358v86.311c0 21.671 17.568 39.239 39.239 39.239h25.932v30.948h54.166V173.358H357.251z" fill="#f9c295"/><path fill="#e59f6a" d="M457.088 173.358v156.498h19.501V173.358z"/><path d="M436.311 126.694h-52.798a48.501 48.501 0 01-19.449-4.045l-11.182-4.862a12.576 12.576 0 00-11.938 1.019 12.568 12.568 0 00-5.693 10.542v35.438c0 27.322 22.229 49.551 49.551 49.551h9.195v26.118c0 9.458 7.694 17.152 17.152 17.152 9.457 0 17.151-7.694 17.151-17.152v-17.411c0-3.952 3.216-7.167 7.168-7.167s7.167 3.215 7.167 7.167v25.676c0 11.997 9.76 21.757 21.757 21.757h12.197a7.5 7.5 0 007.5-7.5v-88.503c0-26.347-21.434-47.78-47.778-47.78z" fill="#f2df33"/><path d="M436.311 126.694h-20.668c26.345 0 47.778 21.433 47.778 47.778v88.503a7.494 7.494 0 01-4.406 6.826c1.72.439 3.521.674 5.377.674h12.197a7.5 7.5 0 007.5-7.5v-88.503c0-26.345-21.434-47.778-47.778-47.778z" fill="#d9b92c"/><path d="M473.305 313.455h-51.108c-21.337 0-38.695 17.359-38.695 38.696V487.63a7.5 7.5 0 007.5 7.5H504.5a7.5 7.5 0 007.5-7.5V352.151c0-21.337-17.358-38.696-38.695-38.696z" fill="#5c9cee"/><path d="M473.305 313.455H454.35c21.337 0 38.695 17.359 38.695 38.696V487.63a7.5 7.5 0 01-7.5 7.5H504.5a7.5 7.5 0 007.5-7.5V352.151c0-21.337-17.358-38.696-38.695-38.696z" fill="#3580d3"/><path d="M154.749 173.358v86.311c0 21.671-17.568 39.239-39.239 39.239H89.577v30.948H35.411V173.358h119.338z" fill="#f9c295"/><path d="M68.24 298.91h21.333v30.948H68.24zm65.175-125.552v86.311c0 21.671-17.568 39.239-39.239 39.239h21.333c21.671 0 39.239-17.568 39.239-39.239v-86.311h-21.333z" fill="#e59f6a"/><path d="M89.804 313.455H38.695C17.358 313.455 0 330.814 0 352.151V487.63a7.5 7.5 0 007.5 7.5h113.499a7.5 7.5 0 007.5-7.5V352.151c0-21.337-17.358-38.696-38.695-38.696z" fill="#9fd479"/><path d="M89.804 313.455H70.119c21.337 0 38.695 17.359 38.695 38.696V487.63a7.5 7.5 0 01-7.5 7.5h19.684a7.5 7.5 0 007.5-7.5V352.151c.001-21.337-17.357-38.696-38.694-38.696z" fill="#7db24f"/><path d="M156.968 423.988l4.944-14.07a10.865 10.865 0 0110.251-7.263h14.698a7.586 7.586 0 017.586 7.586v5.676h9.887c6.321 0 11.446 5.125 11.446 11.446v21.608c0 6.321-5.125 11.446-11.446 11.446h-56.878v-36.428h9.512v-.001z" fill="#f9c295"/><path d="M147.454 416.488H82.373v-54.09c0-14.178-11.535-25.713-25.714-25.713s-25.714 11.535-25.714 25.713v77.16c0 15.637 12.721 28.358 28.357 28.358h88.151a7.5 7.5 0 007.5-7.5v-36.428a7.498 7.498 0 00-7.499-7.5z" fill="#7db24f"/><path d="M169.25 126.694H75.689c-26.345 0-47.778 21.434-47.778 47.779v88.503a7.5 7.5 0 007.5 7.5h12.197c11.997 0 21.757-9.76 21.757-21.757v-25.676c0-3.952 3.215-7.167 7.167-7.167s7.168 3.215 7.168 7.167v17.411c0 9.458 7.694 17.152 17.151 17.152 9.458 0 17.152-7.694 17.152-17.152v-26.118h9.195c27.322 0 49.551-22.229 49.551-49.551v-30.592a7.498 7.498 0 00-7.499-7.499z" fill="#444966"/><path d="M169.25 126.694h-21.796a7.5 7.5 0 017.5 7.5v30.592c0 27.322-22.229 49.551-49.551 49.551h-9.195v26.118c0 5.323-2.437 10.086-6.254 13.235a17.072 17.072 0 0010.897 3.917c9.458 0 17.152-7.694 17.152-17.152v-26.118h9.195c27.322 0 49.551-22.229 49.551-49.551v-30.592a7.498 7.498 0 00-7.499-7.5z" fill="#2e344c"/><path d="M120.999 463.416v21.214a3 3 0 003 3h264.002a3 3 0 003-3v-21.214a3 3 0 00-3-3H123.999a3 3 0 00-3 3z" fill="#d39053"/><path d="M283.936 292.898c-1.044.145-1.63 1.279-1.12 2.202 4.707 8.507 12.816 14.785 22.281 16.68 7.987 1.599 12.979 1.094 19.781 0-10.136-2.294-18.809-9.161-23.302-18.675 13.598-.748 24.394-12.008 24.394-25.793v-52.765c0-14.268-11.567-25.835-25.835-25.835h-19.781c14.268 0 25.835 11.567 25.835 25.835v52.765c0 13.052-9.68 23.842-22.253 25.586z" fill="#7db24f"/><path d="M355.032 423.988l-4.944-14.07a10.865 10.865 0 00-10.251-7.263H325.14a7.586 7.586 0 00-7.586 7.586v5.676h-9.887c-6.321 0-11.446 5.125-11.446 11.446v21.608c0 6.321 5.125 11.446 11.446 11.446h56.878v-36.428h-9.513v-.001z" fill="#f9c295"/><path d="M455.341 336.685c-14.179 0-25.714 11.535-25.714 25.713v54.09h-65.081a7.5 7.5 0 00-7.5 7.5v36.428a7.5 7.5 0 007.5 7.5h88.151c15.637 0 28.357-12.721 28.357-28.358v-77.16c.001-14.178-11.534-25.713-25.713-25.713z" fill="#3580d3"/></svg>