<svg xmlns="http://www.w3.org/2000/svg" viewBox="0 0 512 512"><path d="M435.134 251.941c-30.648 0-55.493-24.845-55.493-55.493v-36.117c0-28.413 23.033-51.446 51.446-51.446h8.095c28.413 0 51.446 23.033 51.446 51.446v36.117c-.001 30.648-24.846 55.493-55.494 55.493z" fill="#fcd0ae"/><path d="M457.173 279.101h-44.079c-30.28 0-54.827 24.547-54.827 54.827v53.013a4.277 4.277 0 004.277 4.277h145.179a4.277 4.277 0 004.277-4.277v-53.013c0-30.28-24.547-54.827-54.827-54.827z" fill="#ebeef2"/><path d="M439.181 108.886h-8.094c-28.413 0-51.446 23.033-51.446 51.446v9.839c25.612 7.585 65.436-5.126 76.607-21.189 4.025 12.403 20.965 20.321 34.379 23.932v-12.582c0-28.413-23.033-51.446-51.446-51.446z" fill="#fcab29"/><path fill="#ed5575" d="M442.162 279.101h-14.057l-14.085 59.498 21.114 22.22 21.114-22.22z"/><path d="M76.866 251.941c-30.648 0-55.493-24.845-55.493-55.493v-36.117c0-28.413 23.033-51.446 51.446-51.446h8.095c28.413 0 51.446 23.033 51.446 51.446v36.117c-.001 30.648-24.846 55.493-55.494 55.493z" fill="#fcd0ae"/><path d="M98.905 279.101H54.827C24.547 279.101 0 303.648 0 333.928v53.013a4.277 4.277 0 004.277 4.277h145.179a4.277 4.277 0 004.277-4.277v-53.013c-.001-30.28-24.548-54.827-54.828-54.827z" fill="#ebeef2"/><path fill="#ed5575" d="M83.895 279.101H69.838l-14.086 59.498 21.114 22.22 21.114-22.22z"/><path d="M286.877 287.008h-61.754c-11.52 0-22.447.536-32.255 5.08-26.308 12.19-44.557 38.829-44.557 69.731v69.96c0 5.69 4.612 10.302 10.302 10.302h194.773c5.69 0 10.302-4.612 10.302-10.302v-69.96c0-30.843-18.178-57.439-44.405-69.661-9.846-4.588-20.827-5.15-32.406-5.15z" fill="#656d88"/><path d="M286.876 287.008h-15.575c15.938 0 30.599 4.161 42.208 14.485 15.818 14.067 25.97 35.861 25.97 60.326v69.96c0 5.689-4.094 10.302-9.144 10.302h23.051c5.689 0 10.302-4.613 10.302-10.302v-69.96c0-30.843-18.178-57.44-44.405-69.661-9.846-4.588-20.827-5.15-32.407-5.15z" fill="#444966"/><path d="M256 407.327l63.123-115.221a76.485 76.485 0 00-32.247-7.098h-61.754a76.48 76.48 0 00-32.246 7.098L256 407.327z" fill="#ebeef2"/><path d="M267.219 313.283c11.246-4.466 19.202-15.439 19.202-28.276h-60.842c0 12.837 7.955 23.809 19.202 28.276l-10.05 55.219L256 407.327l21.27-38.824-10.051-55.22z" fill="#ed5575"/><path d="M255.771 255c-39.848 0-72.15-32.303-72.15-72.15v-46.445c0-36.719 29.766-66.485 66.485-66.485h11.331c36.719 0 66.485 29.766 66.485 66.485v46.445c-.001 39.847-32.304 72.15-72.151 72.15z" fill="#fcd0ae"/><path d="M261.436 69.921h-11.331c-.414 0-.822.024-1.235.031 29.635.659 53.46 24.87 53.46 54.663v71.03c0 30.704-23.314 55.961-53.205 59.038 2.189.2 4.403.317 6.645.317 39.847 0 72.15-32.303 72.15-72.15v-46.445c.001-36.718-29.765-66.484-66.484-66.484z" fill="#e59f6a"/><path d="M261.436 69.921h-11.331c-36.379 0-65.915 29.223-66.459 65.472 12.305 13.681 30.689 25.221 44.539 28.812-3.606-7.211-11.1-24.46-7.211-40.692 12.061 16.22 67.77 42.961 106.947 52.661v-39.768c0-36.719-29.766-66.485-66.485-66.485z" fill="#444966"/><path d="M261.436 69.921h-11.331c-.414 0-.822.024-1.235.031 29.635.659 53.46 24.87 53.46 54.663v43.706c8.878 3.173 17.58 5.869 25.591 7.853v-39.768c0-36.719-29.766-66.485-66.485-66.485z" fill="#2e344c"/><path d="M21.373 160.332h86.872c24.708 0 44.737-20.029 44.737-44.737V97.586H66.044c-24.671 0-44.671 20-44.671 44.671v18.075z" fill="#fcab29"/></svg>